<svg xmlns="http://www.w3.org/2000/svg"><defs><linearGradient id="cat-_Linear1" x1="0" y1="0" x2="1" y2="0" gradientUnits="userSpaceOnUse" gradientTransform="rotate(90 -1 65) scale(12.464)"><stop offset="0" stop-color="#75443e"/><stop offset=".16" stop-color="#75443e"/><stop offset=".45" stop-color="#512926"/><stop offset=".81" stop-color="#290b0a"/><stop offset="1" stop-color="#1a0000"/></linearGradient></defs><symbol viewBox="0 0 128 128" id="angry-emoji"><title>angry-emoji</title><path d="M64.83 119.4c-27.86 0-57.84-17.44-57.84-55.74S36.97 7.92 64.83 7.91c15.44 0 29.73 5.11 40.25 14.39 11.51 10.16 17.59 24.46 17.59 41.35 0 16.82-6.08 31.09-17.59 41.27-10.54 9.34-24.84 14.48-40.25 14.48z" fill="#e0718e" fill-rule="nonzero"/><path d="M64.83 9.91c14.95 0 28.77 4.93 38.92 13.89 11.07 9.77 16.92 23.55 16.92 39.85 0 16.23-5.85 29.98-16.92 39.78-10.18 9.01-24 13.96-38.92 13.96-15 0-28.82-4.89-38.93-13.78C14.84 93.89 8.99 80.07 8.99 63.66c0-16.49 5.85-30.34 16.91-40.03C35.98 14.78 49.81 9.91 64.83 9.91m0-4c-31.07 0-59.84 19.95-59.84 57.74 0 37.58 28.77 57.74 59.84 57.74 31.07 0 59.84-20.67 59.84-57.74 0-37.27-28.77-57.74-59.84-57.74z" fill="#cc2362" fill-rule="nonzero"/><path d="M83.94 103.14a2.28 2.28 0 0 1-.89-.62c-4.16-4.7-10.99-7.79-18.31-7.79-7.31 0-14.15 3.09-18.31 7.79-.25.28-.55.49-.89.62-.75.28-1.6.12-2.2-.41-.58-.52-.79-1.31-.49-2.08 2.98-7.63 11.84-13.64 21.89-13.64s18.91 6 21.89 13.64c.3.76.09 1.56-.49 2.08-.6.53-1.46.69-2.2.41z" fill="#242424" fill-rule="nonzero"/><g fill="#242424" fill-rule="nonzero"><path d="M55.84 73.55c-.69 0-1.34-.25-1.89-.72-2.98-2.55-12.74-7.93-16.33-9.69-1.34-.65-1.98-1.97-1.67-3.32.31-1.34 1.45-2.27 2.79-2.27.25 0 .5.03.75.1 1.32.34 2.61.8 3.85 1.37 3.33 1.56 12.56 6.98 14.8 9.8.71.9.85 2.04.36 3.05-.5 1.02-1.54 1.68-2.66 1.68zm17.79 0c.69 0 1.35-.25 1.89-.72 2.98-2.55 12.74-7.93 16.33-9.69 1.34-.65 1.98-1.97 1.67-3.32-.31-1.34-1.45-2.27-2.79-2.27-.25 0-.5.03-.75.1-1.32.34-2.61.8-3.85 1.37-3.33 1.56-12.56 6.98-14.8 9.8-.71.9-.85 2.04-.36 3.05.51 1.02 1.55 1.68 2.66 1.68z"/><path d="M41.01 75.17c0 4.29 3.36 7.77 7.5 7.77 4.14 0 7.5-3.48 7.5-7.77v-1.46c0-4.29-3.36-7.77-7.5-7.77-4.14 0-7.5 3.48-7.5 7.77v1.46zm32.46 0c0 4.29 3.36 7.77 7.5 7.77 4.14 0 7.5-3.48 7.5-7.77v-1.46c0-4.29-3.36-7.77-7.5-7.77-4.14 0-7.5 3.48-7.5 7.77v1.46z"/></g></symbol><symbol viewBox="0 0 128 128" id="cat"><title>cat</title><path d="M21.77 55.7c-2.21 0-4.1-.54-5.63-1.6C3.44 45.27 5.63 16.18 5.65 15.89c.32-4 3.38-7.02 7.12-7.02.23 0 .47.01.7.04 11.3 1.15 26 5.56 33.36 14.49 3.78 4.59 2.47 10.03.7 13.78-4.56 9.69-16.84 18.52-25.76 18.52z" fill="#fed133" fill-rule="nonzero"/><path d="M12.77 10.38c.18 0 .37.01.55.03 11 1.12 25.28 5.37 32.36 13.95 1.81 2.2 3.37 6.1.5 12.19C41.9 45.62 30.04 54.2 21.77 54.2c-1.9 0-3.5-.45-4.78-1.34-9.96-6.91-10.48-28.94-9.84-36.85.25-3.21 2.67-5.63 5.62-5.63m0-3c-4.51 0-8.23 3.66-8.62 8.39-.54 6.73-.7 31.33 11.13 39.55 1.86 1.29 4.08 1.87 6.49 1.87 14.82 0 36.81-21.92 26.23-34.75-8.05-9.76-23.6-13.93-34.37-15.03-.29-.02-.58-.03-.86-.03z" fill="#eb8f00" fill-rule="nonzero"/><path d="M5.81 22.04c.05-1.31.2-2.74 1.09-3.67 1.18-1.24 3.13-1.11 4.78-.76 4.49.95 8.77 2.96 12.42 5.83 1.82 1.43 3.55 3.2 4.09 5.48.82 3.51-1.38 6.93-3.47 9.83-1.46 2.02-2.93 4.06-4.79 5.69-1.55 1.37-4.73 3.43-6.8 3.68-2.08.25-1.61-2.35-2.46-4.02a45.357 45.357 0 0 1-4.42-14.04c-.39-2.65-.54-5.34-.44-8.02z" fill="#eb8f00" fill-rule="nonzero"/><path d="M106.23 56c-8.92 0-21.2-8.98-25.77-18.67-1.77-3.75-3.08-9.27.7-13.86 7.37-8.93 22.06-13.38 33.36-14.53.24-.02.47-.05.7-.05 3.74 0 6.8 3.01 7.12 7.01.02.29 2.22 29.53-10.48 38.35a9.758 9.758 0 0 1-5.63 1.75z" fill="#fed133" fill-rule="nonzero"/><path d="M115.23 10.38c2.95 0 5.37 2.42 5.63 5.64.64 7.9.11 29.93-9.85 36.85-1.28.89-2.88 1.34-4.78 1.34-8.27 0-20.13-8.58-24.41-17.65-2.87-6.09-1.31-9.99.5-12.19 7.08-8.58 21.36-12.83 32.36-13.95.18-.04.37-.04.55-.04m0-3c-.28 0-.57.01-.85.04C103.61 8.51 88.05 12.68 80 22.44 69.42 35.28 91.41 57.2 106.23 57.2c2.41 0 4.63-.58 6.49-1.87 11.83-8.22 11.67-32.83 11.12-39.55-.38-4.75-4.1-8.4-8.61-8.4z" fill="#eb8f00" fill-rule="nonzero"/><path d="M122.19 22.04c-.05-1.31-.2-2.74-1.09-3.67-1.18-1.24-3.13-1.11-4.78-.76-4.49.95-8.77 2.96-12.42 5.83-1.82 1.43-3.55 3.2-4.09 5.48-.82 3.51 1.38 6.93 3.47 9.83 1.46 2.02 2.93 4.06 4.79 5.69 1.55 1.37 3.75 2.14 5.7 2.91 3.23 1.27 2.72-1.58 3.56-3.25 2.22-4.38 3.72-9.15 4.42-14.04.39-2.65.54-5.34.44-8.02z" fill="#eb8f00" fill-rule="nonzero"/><path d="M64 119.12c-25.77 0-53.5-16.43-53.5-52.5s27.73-52.5 53.5-52.5c14.27 0 27.48 4.81 37.21 13.54 10.66 9.57 16.29 23.04 16.29 38.96 0 15.84-5.63 29.29-16.29 38.89-9.76 8.78-22.97 13.61-37.21 13.61z" fill="#fed133" fill-rule="nonzero"/><path d="M64 15.62c13.9 0 26.75 4.67 36.2 13.16 10.33 9.28 15.8 22.37 15.8 37.84 0 15.4-5.46 28.46-15.8 37.77-9.47 8.53-22.33 13.23-36.2 13.23-25.04 0-52-15.96-52-51 0-15.65 5.46-28.8 15.79-38.01C37.18 20.24 50.04 15.63 64 15.62m0-3c-28.56 0-55 18.66-55 54 0 35.15 26.44 54 55 54 28.55 0 55-19.33 55-54 0-34.85-26.44-53.99-55-54z" fill="#eb8f00" fill-rule="nonzero"/><path d="M8.65 105.57l19.9-10.41m-1.4-7.15l-21.1 2.94m0-15.27l21.27 5.24M119.35 105.57l-19.9-10.41m1.4-7.15l21.1 2.94m0-15.27l-21.27 5.24" fill="none" stroke="#404040" stroke-width="4"/><path d="M55.5 17v21m16-21v21" fill="none" stroke="#eb8f00" stroke-width="7"/><ellipse cx="37.14" cy="59.64" rx="8.84" ry="10" fill="#404040"/><ellipse cx="90.86" cy="59.51" rx="8.84" ry="10" fill="#404040"/><path d="M54.31 95.19c5.35 0 9.69-4.38 9.69-9.67V78m9.69 17.19c-5.35 0-9.69-4.38-9.69-9.67V78" fill="none" stroke="#404040" stroke-width="4"/><path d="M66.47 77.31l5.44-5.97c1.89-2.13.38-5.34-2.47-5.34H58.56c-2.85 0-4.36 3.21-2.47 5.34l5.44 6.05c1.31 1.48 3.63 1.41 4.94-.08z" fill="url(#cat-_Linear1)" fill-rule="nonzero"/><path d="M63.47 83.61c10.599-.004 20.38-.884 28.54-2.4 2.01-.38 3.8 1.37 3.42 3.38-1.688 8.879-7.769 16.96-17.057 21.166-3.812-3.766-9.039-6.085-14.893-6.106-5.72 0-10.912 2.254-14.702 5.932-8.928-4.176-15.414-12.024-17.238-20.942-.41-2.02 1.38-3.81 3.41-3.43 8.15 1.516 17.931 2.396 28.52 2.4z" fill="#242424"/><path d="M48.778 105.582c3.79-3.678 8.982-5.932 14.702-5.932 5.834.021 11.077 2.34 14.891 6.106-4.33 1.974-9.332 3.104-14.911 3.104-5.307 0-10.287-1.185-14.682-3.278z" fill="#ed7770"/><path d="M90.331 87.31c-8.478 3.625-17.503 5.58-26.861 5.58-9.301 0-18.28-1.935-26.756-5.54l-.574-1.65c8.26 1.39 17.66 2.12 27.33 2.12 9.658 0 19.047-.725 27.38-2.13l-.519 1.62z" fill="#fff"/><path d="M31.625 84.974l-.085-.334c-.37-1.84 1.08-3.48 2.87-3.48.181.002.362.019.54.05 8.17 1.52 17.98 2.4 28.52 2.4 10.55 0 20.36-.88 28.54-2.4.18-.03.36-.05.54-.05 1.78 0 3.22 1.61 2.88 3.43l-.088.37a69.8 69.8 0 0 1-5.011 2.35l.519-1.62c-8.333 1.405-17.722 2.13-27.38 2.13-9.67 0-19.07-.73-27.33-2.12l.574 1.65a68.417 68.417 0 0 1-5.089-2.376z" fill="#eb8f00"/></symbol><symbol viewBox="0 0 128 128" id="computer"><title>computer</title><path d="M112.59 85.08H15.18L4 104.12h119.88l-11.29-19.04z" fill="#c3c3c3" fill-rule="nonzero"/><path d="M19.08 82.42l89.61.01 11.68 19.7H7.5l11.58-19.71m-1.15-2L4 104.12h119.88l-14.05-23.7h-91.9z" fill="#424242" fill-opacity=".2" fill-rule="nonzero"/><path d="M26.79 88.03h-6.44l.87-1.68h6.46l-.89 1.68zm10.08 0h-6.44l.8-1.68h6.61l-.97 1.68zm9.59 0h-6.44l.92-1.68h6.45l-.93 1.68zm9.54 0h-6.44l1.04-1.68h6.03L56 88.03zm9.4 0h-6.44l.51-1.68h5.41l.52 1.68zm9.6 0h-6.45l-.71-1.68h6.1L75 88.03zm9.84 0H78.4l-1.22-1.68h6.44l1.22 1.68zm9.49 0h-6.44l-1.15-1.68h6.45l1.14 1.68zm12.9 0h-9.67l-1.23-1.68h9.95l.95 1.68zm-4.93 2.51h6.44l-1.14-1.68h-6.54l1.24 1.68zm-10.53 0h6.44l-1.23-1.68h-6.44l1.23 1.68zm-9.61 0h6.44l-1.09-1.68h-6.43l1.08 1.68zm-10.33 0h6.44l-1.15-1.68h-6.07l.78 1.68zm-9.22 0h6.44l-.71-1.68h-5.43l-.3 1.68zm-9.22 0h6.44l.39-1.68h-6.24l-.59 1.68zm-10.09 0h6.44l.78-1.68h-6.18l-1.04 1.68zm-11.22 0h6.44l1-1.68h-6.45l-.99 1.68zm-13.14 0h9.68l.95-1.68h-9.71l-.92 1.68zm61.01 2.51h6.45l-1.12-1.68h-6.44l1.11 1.68zm-10.26 0h6.44l-.94-1.68h-6.04l.54 1.68zm-12.1 0h6.44l-.18-1.68h-5.76l-.5 1.68zm-11.52 0h6.45l.57-1.68h-6.18l-.84 1.68zm-12.13 0h6.45l1.02-1.68h-6.45l-1.02 1.68zm-16.25 0h12.85l1.06-1.68H18.63l-.94 1.68zm73.14.03h19.3l-1.15-1.74H89.69l1.14 1.74zm14.66 2.48h6.44l-1.3-1.68h-6.44l1.3 1.68zm-12.03 0h6.45l-1.26-1.68h-6.44l1.25 1.68zm-51.33 0h43.75l-1.01-1.68H43.12l-.99 1.68zm-13.74 0h6.44l.79-1.68h-6.3l-.93 1.68zm-12.31 0h6.45l.76-1.68H17l-.92 1.68zm25.36 4.43h44.81l-1.92-3.48H43.3l-1.86 3.48z" fill="#f5f5f5" fill-rule="nonzero"/><path d="M121.74 108.05H6.14c-1.18 0-2.14-.96-2.14-2.14v-1.79h119.88v1.79c0 1.19-.96 2.14-2.14 2.14z" fill="#9e9e9e" fill-rule="nonzero"/><path d="M122.88 105.12v.79c0 .63-.51 1.14-1.14 1.14H6.14c-.63 0-1.14-.51-1.14-1.14v-.79h117.88m1-1H4v1.79c0 1.18.96 2.14 2.14 2.14h115.6c1.18 0 2.14-.96 2.14-2.14v-1.79z" fill="#424242" fill-opacity=".2" fill-rule="nonzero"/><path d="M112.59 85.08H15.18V22.79c0-1.57 1.27-2.84 2.84-2.84h91.72c1.57 0 2.84 1.27 2.84 2.84v62.29h.01z" fill="#bebebe" fill-rule="nonzero"/><path d="M109.74 21.95c.47 0 .84.38.84.84v60.29h-93.4V22.79c0-.47.38-.84.84-.84h91.72m0-2H18.02c-1.57 0-2.84 1.27-2.84 2.84v62.29h97.41V22.79c0-1.57-1.28-2.84-2.85-2.84z" fill="#424242" fill-opacity=".2" fill-rule="nonzero"/><path fill="#616161" fill-rule="nonzero" d="M24.02 27.23h79.66v49.9H24.02z"/></symbol><symbol viewBox="0 0 128 128" id="cool-emoji"><title>cool-emoji</title><path d="M63.99 118.65c-27.31 0-56.71-17.1-56.71-54.65S36.68 9.35 63.99 9.35c15.14 0 29.15 5.01 39.46 14.11C114.74 33.42 120.7 47.44 120.7 64c0 16.49-5.96 30.48-17.25 40.47-10.33 9.14-24.35 14.18-39.46 14.18z" fill="#fee133" fill-rule="nonzero"/><path d="M63.99 11.35c14.65 0 28.19 4.83 38.14 13.61C112.97 34.53 118.7 48.03 118.7 64c0 15.9-5.73 29.37-16.58 38.97-9.97 8.82-23.51 13.68-38.14 13.68-14.69 0-28.24-4.8-38.15-13.5C15.01 93.62 9.28 80.08 9.28 64c0-16.16 5.73-29.72 16.56-39.22 9.88-8.66 23.43-13.43 38.15-13.43m0-4C33.51 7.35 5.28 26.93 5.28 64c0 36.87 28.23 56.65 58.71 56.65S122.7 100.37 122.7 64c0-36.57-28.23-56.65-58.71-56.65z" fill="#eb8f00" fill-rule="nonzero"/><path d="M124 45.42s-4.26.09-4.26 3.5c0 8.42.09 26.49-21.96 26.49-17.66 0-26.09-9.12-27.51-19.19-.59-4.19-2.04-8.76-6.27-8.76-4.23 0-5.69 4.57-6.27 8.76-1.42 10.07-9.85 19.19-27.51 19.19-22.05 0-21.96-18.07-21.96-26.49 0-3.41-4.26-3.5-4.26-3.5v-8.34s8.18-1.26 20.66-1.26 17.45 0 27.38.99c5.86.59 11.96.66 11.96.66s6.1-.06 11.97-.65c9.93-.99 14.9-.99 27.38-.99 12.48 0 20.66 1.26 20.66 1.26v8.33H124z" fill-rule="nonzero"/><path d="M21.12 51.95c-.1 1.6-.74 3.08-2.31 3.37a2.911 2.911 0 0 1-3.38-2.31c-.56-2.98.09-5.77 1.82-7.86a8.508 8.508 0 0 1 6.58-3.08c1.6 0 3.01.99 3.01 2.58 0 1.88-1.5 2.67-3.01 3.2-1.41.51-2.59 2.16-2.71 4.1zm63.58 0c-.1 1.6-.74 3.08-2.31 3.37a2.911 2.911 0 0 1-3.38-2.31c-.56-2.98.09-5.77 1.82-7.86a8.508 8.508 0 0 1 6.58-3.08c1.6 0 3.01.99 3.01 2.58 0 1.88-1.5 2.67-3.01 3.2-1.4.51-2.59 2.16-2.71 4.1z" fill="#858585" fill-rule="nonzero"/><path d="M64 93.81c-11.51 0-19.73-5.97-22.2-9.74-.95-1.45-1.14-3.03-.5-4.22.48-.9 1.36-1.41 2.42-1.41.35 0 .72.06 1.09.18 5.8 1.82 12.45 2.78 19.24 2.78 6.74 0 13.37-.96 19.16-2.78.37-.12.74-.18 1.09-.18 1.05 0 1.93.51 2.41 1.41.64 1.19.45 2.76-.5 4.22-2.48 3.76-10.7 9.74-22.21 9.74z" fill="#242424" fill-rule="nonzero"/></symbol><symbol viewBox="0 0 128 128" id="cry"><title>cry</title><path d="M64 119.89C36.07 119.89 6 102.4 6 64 6 25.6 36.07 8.11 64 8.11c15.48 0 29.81 5.12 40.36 14.43C115.9 32.72 122 47.06 122 64c0 16.86-6.1 31.17-17.64 41.39-10.58 9.35-24.91 14.5-40.36 14.5z" fill="#fee133" fill-rule="nonzero"/><path d="M64 10.11c14.99 0 28.86 4.95 39.03 13.93C114.13 33.83 120 47.65 120 64c0 16.27-5.87 30.07-16.97 39.89-10.21 9.03-24.07 14-39.03 14-15.04 0-28.9-4.91-39.04-13.82C13.86 94.32 8 80.46 8 64c0-16.54 5.86-30.42 16.96-40.15C35.07 14.99 48.93 10.11 64 10.11m0-4c-31.15 0-60 20-60 57.89 0 37.68 28.85 57.89 60 57.89s60-20.73 60-57.89c0-37.37-28.85-57.89-60-57.89z" fill="#eb8f00" fill-rule="nonzero"/><path d="M37.64 97.09c2.96 4.36 8.73 5.74 13.36 3.24 3.91-2.1 8.32-3.29 13-3.29s9.09 1.19 13 3.29c4.64 2.5 10.41 1.11 13.36-3.24 2.14-3.15 2.33-7.22.56-10.59C85.44 76.06 75.44 69.07 64 69.07c-11.44 0-21.44 6.99-26.92 17.43-1.77 3.38-1.58 7.44.56 10.59z" fill="#242424" fill-rule="nonzero"/><path d="M68.01 84.05c-2.025-4.176-1.64-5.526-1.64-9.9 8.242 1.488 14.44 8.609 14.44 17.2 0 3.463-1.007 6.692-2.77 9.421L77 100.33c-3.91-2.1-8.32-3.29-13-3.29s-9.09 1.19-13 3.29a8.904 8.904 0 0 1-2.123.832 17.385 17.385 0 0 1-3.017-9.812c0-8.62 6.23-15.76 14.43-17.2 0 4.32.38 5.74-1.64 9.9h.02c-.34.69-.55 1.46-.55 2.28 0 2.88 2.33 5.21 5.21 5.21s5.21-2.33 5.21-5.21c0-.793-.196-1.539-.55-2.28h.02z" fill-opacity=".6"/><path d="M48.37 22.74c.05-.01.09-.01.14-.02 2.18-.3 2.4-3.51-.04-3.66-1.91-.09-3.88.12-5.84.63-5.39 1.4-9.84 4.87-12.38 9.04-1.24 2.1 1.55 3.75 3 2.1 3.76-4.13 9.16-7.16 15.12-8.09zm31.26 0c-.05-.01-.09-.01-.14-.02-2.18-.3-2.4-3.51.04-3.66 1.91-.09 3.88.12 5.84.63 5.39 1.4 9.84 4.87 12.38 9.04 1.24 2.1-1.55 3.75-3 2.1-3.76-4.13-9.16-7.16-15.12-8.09z" fill="#6d4c41" fill-rule="nonzero"/><path d="M35.88 122.34c-9.46 0-15.49-3.31-15.49-5.59 0-.14.04-.31.12-.53.19-.51.17-1.07-.06-1.56s-.65-.86-1.16-1.04c-2.73-.93-3.73-2.09-3.73-2.65 0-1.2 3.73-3.61 10.57-3.76 1.06-.02 1.91-.95 1.95-2.01l2.4-62.2h10.66l2.74 67.49c.03.85.6 1.63 1.42 1.87 4.17 1.26 6.07 3.15 6.07 4.35 0 2.28-6.04 5.63-15.49 5.63z" fill="#5f7aff" fill-rule="nonzero"/><path d="M39.22 45l2.66 65.57c.07 1.7 1.21 3.21 2.84 3.71 2.95.89 4.2 1.98 4.57 2.44-.86 1.17-5.48 3.61-13.41 3.61-7.99 0-12.62-2.45-13.43-3.61.3-.96.24-2-.2-2.92-.46-.98-1.3-1.73-2.33-2.08a10.015 10.015 0 0 1-1.73-.76c1.33-.76 4.11-1.67 7.97-1.75 2.11-.05 3.82-1.82 3.91-3.93L32.41 45H39m4.06-4h-14.5l-2.48 64.13c-6.98.16-12.52 2.73-12.52 5.8 0 1.84 1.99 3.51 5.08 4.56-.15.4-.25.82-.25 1.24 0 4.19 7.83 7.59 17.49 7.59 9.66 0 17.49-3.42 17.49-7.61 0-2.58-2.97-4.95-7.49-6.32L43.06 41z" fill="#4864ed" fill-rule="nonzero"/><path d="M92.42 122.33c-9.46 0-15.49-3.32-15.49-5.6 0-1.2 1.9-3.06 6.07-4.33.81-.25 1.38-1.07 1.42-1.92L87.16 43h10.66l2.4 62.21c.04 1.06.9 1.94 1.95 1.96 6.84.16 10.57 2.6 10.57 3.8 0 .55-.99 1.71-3.73 2.64-.51.17-.93.56-1.16 1.04-.23.49-.25 1.05-.06 1.56.08.22.12.39.12.52 0 2.29-6.04 5.6-15.49 5.6z" fill="#5f7aff" fill-rule="nonzero"/><path d="M95.89 45l2.33 60.29c.08 2.11 1.79 3.84 3.91 3.89 3.86.09 6.64 1.03 7.97 1.79-.4.23-.96.51-1.73.77-1.02.35-1.86 1.1-2.33 2.08-.43.91-.5 1.96-.2 2.91-.81 1.16-5.45 3.6-13.43 3.6-7.92 0-12.54-2.42-13.41-3.59.37-.46 1.62-1.53 4.57-2.42 1.63-.49 2.77-2.05 2.84-3.75L89.08 45H96m3.74-4h-14.5l-2.82 69.4c-4.53 1.37-7.49 3.71-7.49 6.28 0 4.19 7.83 7.62 17.49 7.62 9.66 0 17.49-3.38 17.49-7.57 0-.42-.1-.82-.25-1.22 3.09-1.05 5.08-2.68 5.08-4.52 0-3.07-5.55-5.71-12.52-5.86L99.74 41z" fill="#4864ed" fill-rule="nonzero"/><path d="M42.15 49.11s-.06-.08-.18-.22c-.06-.07-.13-.16-.21-.27-.09-.11-.18-.23-.26-.29l-.62-.62c-.25-.25-.55-.52-.86-.79-.64-.54-1.4-1.04-2.2-1.39-.81-.34-1.62-.53-2.45-.52.35-.01.09 0 .17 0h-.29l-.29.01c-.26 0-.21.02-.29.03-.07-.01-.35.06-.54.09-.4.1-.82.22-1.22.39-.8.35-1.56.85-2.2 1.39-.63.54-1.16 1.07-1.51 1.47-.36.41-.57.64-.57.64l-.3.34a3.339 3.339 0 0 1-4.69.28c-1.04-.92-1.36-2.36-.93-3.6 0 0 .04-.11.11-.32.08-.21.17-.53.35-.91.33-.78.89-1.87 1.82-3.08.91-1.21 2.25-2.51 4.03-3.54.9-.49 1.89-.96 2.97-1.25.56-.13 1.04-.26 1.74-.34.3-.04.74-.09.87-.09l.76-.04c1.14.02 2.28.18 3.37.47 1.08.28 2.07.75 2.97 1.25 1.78 1.03 3.12 2.33 4.03 3.54.47.6.84 1.18 1.13 1.7.29.5.53 1.01.72 1.44.11.22.16.38.2.5.04.13.08.24.11.33l.09.27c.57 1.77-.4 3.67-2.17 4.24a3.416 3.416 0 0 1-3.66-1.11zm57.33 0s-.06-.08-.18-.22c-.06-.07-.13-.16-.21-.27-.09-.11-.18-.23-.26-.29l-.62-.62c-.25-.25-.55-.52-.86-.79-.64-.54-1.4-1.04-2.2-1.39-.81-.34-1.62-.53-2.45-.52.35-.01.09 0 .17 0h-.29l-.29.01c-.26 0-.21.02-.29.03-.07-.01-.35.06-.54.09-.4.1-.82.22-1.22.39-.8.35-1.56.85-2.2 1.39-.63.54-1.16 1.07-1.52 1.47-.36.41-.57.64-.57.64l-.3.34a3.339 3.339 0 0 1-4.69.28c-1.04-.92-1.36-2.36-.93-3.6 0 0 .04-.11.11-.32.08-.21.17-.53.35-.91.33-.78.89-1.87 1.82-3.08.91-1.21 2.25-2.51 4.03-3.54.9-.49 1.89-.96 2.97-1.25.56-.13 1.04-.26 1.74-.34.3-.04.73-.09.87-.09l.76-.04c1.14.02 2.28.18 3.37.47 1.08.28 2.07.75 2.97 1.25 1.78 1.03 3.12 2.33 4.03 3.54.47.6.84 1.18 1.13 1.7.29.5.53 1.01.72 1.44.11.22.16.38.2.5.04.13.08.24.11.33l.09.27c.57 1.77-.4 3.67-2.17 4.24-1.35.43-2.8-.06-3.65-1.11z" fill="#242424" fill-rule="nonzero"/></symbol><symbol viewBox="0 0 128 128" id="crying-emoji"><title>crying-emoji</title><path d="M64 119.89C36.07 119.89 6 102.4 6 64 6 25.6 36.07 8.11 64 8.11c15.48 0 29.81 5.12 40.36 14.43C115.9 32.72 122 47.06 122 64c0 16.86-6.1 31.17-17.64 41.39-10.58 9.35-24.91 14.5-40.36 14.5z" fill="#fee133" fill-rule="nonzero"/><path d="M64 10.11c14.99 0 28.86 4.95 39.03 13.93C114.13 33.83 120 47.65 120 64c0 16.27-5.87 30.07-16.97 39.89-10.21 9.03-24.07 14-39.03 14-15.04 0-28.9-4.91-39.04-13.82C13.86 94.32 8 80.46 8 64c0-16.54 5.86-30.42 16.96-40.15C35.07 14.99 48.93 10.11 64 10.11m0-4c-31.15 0-60 20-60 57.89 0 37.68 28.85 57.89 60 57.89s60-20.73 60-57.89c0-37.37-28.85-57.89-60-57.89z" fill="#eb8f00" fill-rule="nonzero"/><path d="M64 79.44c10.75 0 18.41 5.58 20.72 9.09.89 1.36 1.07 2.83.47 3.94-.45.84-1.27 1.32-2.25 1.32-.33 0-.67-.06-1.01-.16-5.42-1.7-11.62-2.59-17.96-2.59-6.29 0-12.48.9-17.88 2.59-.35.11-.69.16-1.02.16-.98 0-1.8-.48-2.25-1.32-.6-1.11-.42-2.58.47-3.94 2.3-3.52 9.96-9.09 20.71-9.09z" fill="#242424" fill-rule="nonzero"/><path d="M41.32 106.55c-5.6 0-9.94-5.47-9.94-10.18 0-3.3 1.48-7.12 3.52-12.42.3-.77.61-1.58.93-2.41 1.55-4.07 3.76-8.44 5.37-11.44 1.43 2.96 3.47 7.25 5.39 11.55 3.63 8.15 4.69 11.46 4.69 14.72-.01 4.71-4.36 10.18-9.96 10.18z" fill="#5f7aff" fill-rule="nonzero"/><path d="M41.12 75.17c1.07 2.27 2.26 4.83 3.4 7.4 3.48 7.81 4.49 10.91 4.49 13.8 0 4.39-4.2 7.93-7.68 7.93-3.48 0-7.68-3.54-7.68-7.93 0-2.88 1.41-6.54 3.37-11.61.3-.78.61-1.58.93-2.42.9-2.4 2.05-4.91 3.17-7.17m.2-9.94s-4.81 8.16-7.61 15.5c-2.55 6.7-4.59 11.39-4.59 15.64 0 6.05 5.46 12.44 12.2 12.44 6.74 0 12.2-6.39 12.2-12.44 0-3.81-1.23-7.45-4.88-15.63-3.49-7.83-7.32-15.51-7.32-15.51z" fill="#4864ed" fill-rule="nonzero"/><path d="M95.25 46.43c-1.38.21-2.7-.46-3.36-1.71-1.88-3.43-5.32-6.05-9.18-6.99-1.6-.35-2.68-1.73-2.63-3.29.05-1.49 1.08-2.65 2.58-2.88.19-.03.4-.04.62-.04 1.77.07 3.48.44 5.11 1.1 4.39 1.75 7.87 5.4 9.28 9.76.3.98.19 1.92-.28 2.68a3.112 3.112 0 0 1-2.14 1.37zm-62.5 0c1.38.21 2.7-.46 3.36-1.71 1.88-3.43 5.32-6.05 9.18-6.99 1.6-.35 2.68-1.73 2.63-3.29-.05-1.49-1.08-2.65-2.58-2.88-.19-.03-.4-.04-.62-.04-1.77.07-3.48.44-5.11 1.1-4.39 1.75-7.87 5.4-9.28 9.76-.3.98-.19 1.92.28 2.68a3.112 3.112 0 0 0 2.14 1.37z" fill="#6d4c41" fill-rule="nonzero" stroke="#6d4c41"/><path d="M82.77 46.86c4.19 0 8 3.54 8 9.42s-3.81 9.42-8 9.42c-4.19 0-8-3.54-8-9.42s3.81-9.42 8-9.42zm-37.54 0c-4.19 0-8 3.54-8 9.42s3.81 9.42 8 9.42c4.19 0 8-3.54 8-9.42s-3.81-9.42-8-9.42z" fill="#242424" fill-rule="nonzero"/></symbol><symbol viewBox="0 0 128 128" id="dizzy-emoji"><title>dizzy-emoji</title><path d="M64 119.89C36.07 119.89 6 102.4 6 64 6 25.6 36.07 8.11 64 8.11c15.48 0 29.81 5.12 40.36 14.43C115.9 32.72 122 47.06 122 64c0 16.86-6.1 31.17-17.64 41.39-10.58 9.35-24.91 14.5-40.36 14.5z" fill="#fee133" fill-rule="nonzero"/><path d="M64 10.11c14.99 0 28.86 4.95 39.03 13.93C114.13 33.83 120 47.65 120 64c0 16.27-5.87 30.07-16.97 39.89-10.21 9.03-24.07 14-39.03 14-15.04 0-28.9-4.91-39.04-13.82C13.86 94.32 8 80.46 8 64c0-16.54 5.86-30.42 16.96-40.15C35.07 14.99 48.93 10.11 64 10.11m0-4c-31.15 0-60 20-60 57.89 0 37.68 28.85 57.89 60 57.89s60-20.73 60-57.89c0-37.37-28.85-57.89-60-57.89z" fill="#eb8f00" fill-rule="nonzero"/><path d="M102.18 50.48c.02-8.95-7.22-16.22-16.17-16.24-7.16-.02-12.98 5.77-12.99 12.93-.01 5.73 4.62 10.38 10.35 10.39 4.58.01 8.3-3.7 8.32-8.28v-.016c0-3.634-2.986-6.626-6.62-6.634h-.02c-2.907 0-5.3 2.392-5.3 5.3 0 0 0 0 0 0M30.31 33.8c-5.16 7.31-3.41 17.42 3.9 22.58 5.85 4.13 13.94 2.73 18.07-3.12 3.3-4.68 2.18-11.15-2.5-14.45a8.294 8.294 0 0 0-11.56 2c-2.11 3-1.4 7.14 1.6 9.25a5.309 5.309 0 0 0 7.4-1.28" fill="none" stroke="#242424" stroke-width="5"/><path d="M64 64.87c-16.03 0-33.43 16.18-33.43 36.14 0 5.58 5.31 8.83 10.05 6.56 5.86-2.8 14.49-5.62 23.38-5.62 8.89 0 17.52 2.81 23.38 5.62 4.74 2.27 10.05-.98 10.05-6.56 0-19.96-18.61-36.14-33.43-36.14z" fill="#242424" fill-rule="nonzero"/><path d="M64 64.87c9.941.041 21.51 7.256 28.067 17.982C84.004 80.212 74.33 78.79 64 78.79c-10.5 0-20.322 1.469-28.411 4.187C41.87 72.172 53.194 64.906 64 64.87z" fill="#fff"/><path d="M64 69.4c6.08 0 13.39 3.54 19.06 9.25 6.35 6.38 9.84 14.32 9.84 22.37 0 1.9-1.23 2.76-2.38 2.76-.39 0-.79-.1-1.19-.29-3.81-1.82-13.9-6.06-25.33-6.06-11.43 0-21.52 4.24-25.33 6.06-.4.19-.8.29-1.19.29-1.15 0-2.38-.86-2.38-2.76C35.1 83.21 50.63 69.4 64 69.4m0-4.53c-16.03 0-33.43 16.18-33.43 36.14 0 4.36 3.24 7.29 6.91 7.29 1.03 0 2.1-.23 3.14-.73 5.86-2.8 14.49-5.62 23.38-5.62 8.89 0 17.52 2.81 23.38 5.62 1.04.5 2.11.73 3.14.73 3.67 0 6.91-2.93 6.91-7.29 0-19.96-18.61-36.14-33.43-36.14z" fill="#eb8f00" fill-rule="nonzero"/></symbol><symbol viewBox="0 0 128 128" id="grossed-emoji"><title>grossed-emoji</title><path d="M64 119.89C36.07 119.89 6 102.4 6 64 6 25.6 36.07 8.11 64 8.11c15.48 0 29.81 5.12 40.36 14.43C115.9 32.72 122 47.06 122 64c0 16.86-6.1 31.17-17.64 41.39-10.58 9.35-24.91 14.5-40.36 14.5z" fill="#fee133" fill-rule="nonzero"/><path d="M64 10.11c14.99 0 28.86 4.95 39.03 13.93C114.13 33.83 120 47.65 120 64c0 16.27-5.87 30.07-16.97 39.89-10.21 9.03-24.07 14-39.03 14-15.04 0-28.9-4.91-39.04-13.82C13.86 94.32 8 80.46 8 64c0-16.54 5.86-30.42 16.96-40.15C35.07 14.99 48.93 10.11 64 10.11m0-4c-31.15 0-60 20-60 57.89 0 37.68 28.85 57.89 60 57.89s60-20.73 60-57.89c0-37.37-28.85-57.89-60-57.89z" fill="#eb8f00" fill-rule="nonzero"/><path d="M35.47 96.24c-6.6 0-11.98-5.37-11.98-11.98v-.66c0-6.6 5.37-11.98 11.98-11.98h57.06c6.6 0 11.98 5.37 11.98 11.98v.66c0 6.6-5.37 11.98-11.98 11.98H35.47z" fill="#fff" fill-rule="nonzero"/><path d="M92.53 73.62c5.5 0 9.98 4.48 9.98 9.98v.66c0 5.5-4.48 9.98-9.98 9.98H35.47c-5.5 0-9.98-4.48-9.98-9.98v-.66c0-5.5 4.48-9.98 9.98-9.98h57.06m0-4H35.47c-7.69 0-13.98 6.29-13.98 13.98v.66c0 7.69 6.29 13.98 13.98 13.98h57.06c7.69 0 13.98-6.29 13.98-13.98v-.66c0-7.69-6.29-13.98-13.98-13.98z" fill="#eb8f00" fill-rule="nonzero"/><path d="M94 73.687v8.243h8.33l.17 1.99-.171 2.01H94v8.223l-.14.017H90v-8.24h-9.75v8.24h-4v-8.24h-9.74v8.24h-4v-8.24h-9.75v8.24h-4v-8.24h-9.74v8.24h-4v-8.24h-9.348l-.172-2.01.169-1.99h9.351v-8.26h4v8.26h9.74v-8.26h4v8.26h9.75v-8.26h4v8.26h9.74v-8.26h4v8.26H90v-8.26h3.86l.14.017z" fill="#b3b3b0"/><path d="M44.67 37.86c-4.19 0-8 3.54-8 9.42s3.81 9.42 8 9.42c4.19 0 8-3.54 8-9.42s-3.81-9.42-8-9.42zm38.66 0c-4.19 0-8 3.54-8 9.42s3.81 9.42 8 9.42c4.19 0 8-3.54 8-9.42s-3.81-9.42-8-9.42z" fill="#242424" fill-rule="nonzero"/></symbol><symbol viewBox="0 0 128 128" id="heart-emoji"><title>heart-emoji</title><path d="M64 119.89C36.07 119.89 6 102.4 6 64 6 25.6 36.07 8.11 64 8.11c15.48 0 29.81 5.12 40.36 14.43C115.9 32.72 122 47.06 122 64c0 16.86-6.1 31.17-17.64 41.39-10.58 9.35-24.91 14.5-40.36 14.5z" fill="#fee133" fill-rule="nonzero"/><path d="M64 10.11c14.99 0 28.86 4.95 39.03 13.93C114.13 33.83 120 47.65 120 64c0 16.27-5.87 30.07-16.97 39.89-10.21 9.03-24.07 14-39.03 14-15.04 0-28.9-4.91-39.04-13.82C13.86 94.32 8 80.46 8 64c0-16.54 5.86-30.42 16.96-40.15C35.07 14.99 48.93 10.11 64 10.11m0-4c-31.15 0-60 20-60 57.89 0 37.68 28.85 57.89 60 57.89s60-20.73 60-57.89c0-37.37-28.85-57.89-60-57.89z" fill="#eb8f00" fill-rule="nonzero"/><path d="M63.99 82.23c-3.58 0-7.12-.61-10.5-1.79-7.15-2.5-13.36 5.57-9.2 11.89 4.33 6.58 11.07 10.22 19.69 10.22 8.62 0 15.36-3.64 19.69-10.22 4.16-6.33-2.04-14.39-9.2-11.89-3.37 1.18-6.9 1.79-10.48 1.79z" fill="#242424" fill-rule="nonzero"/><path d="M41.93 69.94c-1.03-.26-7.31-1.9-13.83-5.16-6.06-3.03-13.69-8.18-15.7-15.5-.81-2.9-.42-5.93 1.08-8.56 1.5-2.63 3.95-4.53 6.9-5.36.97-.28 1.98-.42 3-.42 2.96 0 5.87 1.17 7.98 3.21l2.47 2.39.86-3.33c1.01-3.91 4.08-7.01 8.03-8.11 1.03-.31 2.06-.46 3.09-.46 4.99 0 9.56 3.48 10.87 8.27 3.8 13.84-13.37 31.63-14.75 33.03z" fill="#cc1775" fill-rule="nonzero"/><path d="M45.81 30.65c4.1 0 7.87 2.86 8.95 6.8 3.16 11.5-9.9 26.46-13.45 30.25-4.98-1.4-23.83-7.43-26.99-18.97-.66-2.37-.34-4.86.9-7.03s3.27-3.74 5.72-4.43a9.186 9.186 0 0 1 2.45-.34c2.45 0 4.85.96 6.59 2.65l4.94 4.78 1.71-6.66c.84-3.27 3.32-5.76 6.63-6.68l.08-.02c.79-.22 1.63-.35 2.47-.35m0-4c-1.2 0-2.42.17-3.63.53-4.81 1.33-8.28 5.06-9.43 9.54-2.46-2.39-5.87-3.77-9.37-3.77-1.18 0-2.37.16-3.54.49-3.45.97-6.33 3.19-8.1 6.29-1.77 3.1-2.23 6.68-1.28 10.09 4.24 15.49 30.01 21.84 31.11 22.11.13.03.27.05.41.05.13 0 .26-.02.39-.04.32-.07.63-.24.88-.47.8-.79 19.61-19.62 15.37-35.06-1.6-5.84-7.03-9.76-12.81-9.76z" fill="#b3005c" fill-rule="nonzero"/><path d="M86.46 70.05c-.72-.7-5.36-5.29-9.41-11.44-3.74-5.68-7.81-13.98-5.93-21.32 1.25-4.9 5.84-8.46 10.92-8.46.97 0 1.94.13 2.87.39 4 1.03 7.13 4.09 8.21 7.98l.92 3.31 2.43-2.43c2.12-2.13 5.08-3.35 8.12-3.35.95 0 1.9.12 2.81.36 2.97.77 5.45 2.63 7 5.24 1.55 2.6 1.99 5.64 1.24 8.54-1.88 7.37-9.43 12.65-15.43 15.78-6.52 3.4-12.81 5.15-13.75 5.4z" fill="#cc1775" fill-rule="nonzero"/><path d="M82.05 30.83c.79 0 1.58.11 2.34.32l.08.02c3.32.86 5.84 3.31 6.74 6.56l1.83 6.63 4.86-4.87c1.75-1.76 4.19-2.76 6.7-2.76.78 0 1.55.1 2.31.3 2.45.64 4.51 2.17 5.78 4.32 1.27 2.14 1.64 4.63 1.01 7.03-2.96 11.58-21.71 17.93-26.65 19.42-1.62-1.66-5.15-5.48-8.32-10.29-3.52-5.34-7.36-13.1-5.66-19.73 1.03-4.03 4.8-6.95 8.98-6.95m0-4c-5.86 0-11.34 4.04-12.85 9.96-3.98 15.52 15.15 34.01 15.97 34.79.25.23.56.39.88.46.12.02.24.04.36.04.15 0 .29-.02.44-.06 1.09-.28 26.75-7.08 30.72-22.64.89-3.42.38-6.99-1.45-10.06-1.83-3.07-4.74-5.24-8.21-6.15-1.1-.29-2.21-.43-3.32-.43-3.58 0-7.06 1.46-9.53 3.94-1.23-4.46-4.76-8.12-9.6-9.37-1.14-.33-2.28-.48-3.41-.48z" fill="#b3005c" fill-rule="nonzero"/></symbol><symbol viewBox="0 0 128 128" id="monkey"><title>monkey</title><ellipse cx="27.91" cy="66" rx="22.41" ry="25.14" fill="#e6b175"/><path d="M27.91 42.36c11.53 0 20.91 10.6 20.91 23.64 0 13.04-9.38 23.64-20.91 23.64S7 79.03 7 66c0-13.03 9.38-23.64 20.91-23.64m0-3C14.71 39.36 4 51.29 4 66s10.71 26.64 23.91 26.64S51.82 80.71 51.82 66s-10.7-26.64-23.91-26.64z" fill="#8b5e3c" fill-rule="nonzero"/><path d="M100.09 91.14c-12.36 0-22.41-11.28-22.41-25.14 0-13.86 10.05-25.14 22.41-25.14S122.5 52.14 122.5 66c0 13.86-10.05 25.14-22.41 25.14z" fill="#e6b175" fill-rule="nonzero"/><path d="M100.09 42.36C111.62 42.36 121 52.97 121 66c0 13.03-9.38 23.64-20.91 23.64S79.18 79.03 79.18 66c0-13.03 9.38-23.64 20.91-23.64m0-3c-13.21 0-23.91 11.93-23.91 26.64s10.71 26.64 23.91 26.64S124 80.71 124 66s-10.71-26.64-23.91-26.64z" fill="#8b5e3c" fill-rule="nonzero"/><path d="M64.07 113.87c-14.34 0-26.67-5.46-35.64-15.79-8.29-9.54-12.86-22.31-12.86-35.94 0-24.03 15-48.28 48.5-48.28s48.5 24.25 48.5 48.28c0 13.63-4.57 26.39-12.86 35.94-8.97 10.33-21.3 15.79-35.64 15.79z" fill="#825c40" fill-rule="nonzero"/><path d="M64.07 15.36c14.34 0 26.38 4.72 34.8 13.64 7.87 8.33 12.2 20.1 12.2 33.14 0 13.27-4.44 25.68-12.49 34.95-8.68 9.99-20.61 15.27-34.51 15.27-13.9 0-25.83-5.28-34.51-15.27-8.06-9.27-12.49-21.68-12.49-34.95 0-13.04 4.33-24.81 12.2-33.14 8.42-8.92 20.46-13.64 34.8-13.64m0-3c-31.96 0-50 22.29-50 49.78 0 27.49 18.6 53.22 50 53.22s50-25.73 50-53.22-18.04-49.78-50-49.78z" fill="#8b5e3c" fill-rule="nonzero"/><path d="M105.19 56.21c0-10.94-9.23-19.81-20.61-19.81-10.14 0-18.55 7.04-20.27 16.31-.1 0-.21-.01-.31-.01h-.17c-1.73-9.27-10.14-16.3-20.27-16.3-11.38 0-20.61 8.87-20.61 19.81 0 5.88 2.68 11.14 6.91 14.77-1.15 2.59-1.78 5.36-1.78 8.24 0 14.65 16.08 30.28 35.92 30.28 19.84 0 35.92-15.63 35.92-30.28 0-2.84-.61-5.58-1.73-8.15 4.28-3.63 7-8.94 7-14.86z" fill="#e6b175" fill-rule="nonzero"/><ellipse cx="41.4" cy="59.01" rx="7.87" ry="8.91" fill="#404040"/><ellipse cx="86.6" cy="59.01" rx="7.87" ry="8.91" fill="#404040"/><path d="M63.99 81.32c-9.23 0-17.8-.77-24.96-2.1-1.77-.33-3.34 1.23-2.98 3 2.38 11.64 13.83 21.19 27.93 21.19 15.43 0 25.81-9.87 27.97-21.23.33-1.76-1.23-3.29-2.99-2.96-7.15 1.32-15.73 2.1-24.97 2.1z" fill="#404040" fill-rule="nonzero"/><path d="M36.2 80.819a2.505 2.505 0 0 1 2.83-1.599c7.16 1.33 15.73 2.1 24.96 2.1s17.81-.77 24.97-2.1a2.522 2.522 0 0 1 2.841 1.599C83.49 85.303 73.815 87.77 64 87.77c-9.815 0-19.49-2.467-27.8-6.951z" fill="#fff"/><path d="M51.134 100.544A18.41 18.41 0 0 1 64 95.35c5.08 0 9.681 2.032 13.037 5.346a29.005 29.005 0 0 1-6.477 2.084 34.11 34.11 0 0 1-6.58.63c-4.663 0-9.036-1.044-12.846-2.866z" fill="#ff4f4f"/><ellipse cx="69.25" cy="70.12" rx="2.44" ry="3.91" fill="#404040"/><ellipse cx="58.75" cy="70.12" rx="2.44" ry="3.91" fill="#404040"/></symbol><symbol viewBox="0 0 128 128" id="poo"><title>poo</title><path d="M63.93 122.33c-33.25 0-42.68-2.73-49.56-4.73-.75-.22-1.47-.43-2.2-.63-6.32-1.74-6.79-9.97-5.59-14.75 1.31-5.24 5.78-9.35 11.95-11a3.64 3.64 0 0 0 2.46-2.17c.44-1.08.34-2.27-.26-3.28-1.63-2.72-2.08-5.93-1.25-8.82.83-2.9 3-5.59 5.93-7.37 1.16-.7 2.28-1.04 3.83-1.37.07-.01.16-.03.28-.05 1.16-.19 2.91-.48 3.61-1.9.35-.71.34-1.54-.05-2.28-1.73-3.29-1.85-7.09-.35-10.69 1.65-3.97 5.04-7.07 9.06-8.3.12-.04.51-.09.77-.12 1.16-.15 2.6-.34 3.23-1.62.35-.7.31-1.51-.1-2.22-4.24-7.4.07-10.67 3.87-13.55 1.79-1.36 3.2-2.43 3.47-4.02.57-3.33.2-5.82-1.32-8.63 6.1 1.84 10.72 3.55 15.66 6.5 10 5.97 14.17 11.34 12.76 16.42-.04.13-.08.26-.12.4-.18.58-.4 1.3-.39 2.12.01 3.22 4.06 4.5 7.02 5.43.74.23 1.5.47 1.8.63 2.5 1.27 4.59 3.3 5.9 5.73 1.2 2.23 1.76 4.87 1.59 7.44-.02.24-.26.96-.42 1.44-.59 1.74-1.25 3.71-.43 5.37.4.8 1.08 1.38 1.97 1.67 5.86 1.94 9.05 4.54 10.38 8.44.83 2.46.77 5.25-.17 7.67-.07.18-.17.39-.27.62-.58 1.28-1.46 3.22-.6 4.92.33.65 1.04 1.49 2.54 1.79 6.39 1.3 10.96 5.23 12.53 10.78.07.24.13.5.18.79.82 4.37.18 11.65-4.92 13.84-6.22 2.67-26.84 5.5-52.79 5.5z" fill="#8a533f" fill-rule="nonzero"/><path d="M55.01 17.99c4.16 1.39 7.67 2.88 11.33 5.06 8.99 5.37 12.98 10.14 11.86 14.17-.03.12-.07.23-.1.35-.2.67-.48 1.58-.48 2.71.01 4.68 5.07 6.27 8.42 7.33.54.17 1.29.41 1.5.5 2.14 1.09 3.93 2.82 5.04 4.89 1.01 1.87 1.49 4.09 1.37 6.26-.05.22-.22.71-.33 1.04-.64 1.9-1.52 4.5-.32 6.91.63 1.27 1.74 2.22 3.13 2.68 5.2 1.72 8.01 3.94 9.11 7.19.68 2.02.63 4.32-.14 6.3-.06.15-.14.33-.23.52-.7 1.53-1.86 4.1-.56 6.65.75 1.47 2.14 2.48 3.92 2.84 3.31.67 9.14 2.79 11 9.37.05.17.1.38.14.62.67 3.59.25 9.92-3.74 11.63-4.82 2.06-23.2 5.34-52.01 5.34-32.96 0-42.23-2.69-49.01-4.65-.76-.22-1.49-.43-2.22-.63-5.14-1.41-5.03-8.92-4.18-12.33 1.13-4.52 5.07-8.09 10.53-9.55a5.62 5.62 0 0 0 3.8-3.35c.68-1.67.53-3.51-.4-5.06-1.34-2.24-1.72-4.88-1.05-7.23.7-2.42 2.54-4.69 5.05-6.22.92-.56 1.84-.83 3.19-1.12.06-.01.13-.02.21-.04 1.37-.23 3.92-.65 5.08-2.98.64-1.29.62-2.79-.07-4.09-1.45-2.76-1.54-5.95-.27-8.99 1.42-3.4 4.31-6.06 7.73-7.14.11-.02.35-.05.51-.07 1.37-.18 3.66-.48 4.76-2.72.64-1.29.58-2.82-.15-4.11-3.2-5.59-.82-7.81 3.34-10.96 1.97-1.49 3.83-2.9 4.23-5.28.37-2.17.38-4.04.01-5.84m-4-5.36c-1.23 0-2.11 1.38-1.41 2.54 1.58 2.66 2 4.8 1.46 7.96-.5 2.94-14.16 6.57-7.1 18.9.49.86-1.81.77-2.75 1.06-8.94 2.74-14.42 13.22-9.9 21.84.52.99-1.88 1.2-2.5 1.34-1.66.36-3.01.75-4.44 1.62-3.34 2.03-5.83 5.1-6.81 8.53-1 3.46-.44 7.23 1.46 10.4.58.96.08 2.2-1 2.49-6.25 1.67-11.76 5.98-13.38 12.45-1.41 5.65-.62 15.07 7 17.16 7.62 2.1 15.29 5.43 52.29 5.43 27.17 0 47.34-2.98 53.58-5.66 6.25-2.67 7.03-11.04 6.1-16.04-.07-.36-.14-.68-.22-.97-1.9-6.72-7.39-10.84-14.05-12.2-2.49-.51-.73-3.27-.2-4.65a13.346 13.346 0 0 0 .19-9.03c-1.82-5.37-6.55-8.01-11.64-9.7-2.3-.76.14-4.8.25-6.46.19-2.94-.43-5.93-1.83-8.52-1.51-2.81-3.91-5.12-6.75-6.56-1.69-.86-7.72-1.87-7.73-4.28 0-.68.26-1.32.44-1.98 2.31-8.32-7.7-15.11-13.67-18.67-5.48-3.28-10.54-5.03-16.88-6.91-.18-.07-.35-.09-.51-.09z" fill="#703d2b" fill-rule="nonzero"/><circle cx="80.13" cy="69.49" r="12.4" fill="#fff"/><circle cx="80.13" cy="69.49" r="12.4" fill="none"/><ellipse cx="80.13" cy="69.49" rx="5.73" ry="5.82" fill="#242424"/><circle cx="47.87" cy="69.49" r="12.4" fill="#fff"/><circle cx="47.87" cy="69.49" r="12.4" fill="none"/><ellipse cx="47.87" cy="69.49" rx="5.73" ry="5.82" fill="#242424"/><path d="M35.244 91.171C44.214 95.793 53.896 98.32 64 98.32s19.786-2.527 28.751-7.147c-2.332 11.568-13.003 21.567-28.771 21.567-14.425 0-26.173-9.704-28.736-21.569z"/><path d="M63.99 89.95c9.589-.005 18.405-.805 25.76-2.16 1.81-.34 3.42 1.24 3.08 3.05l-.078.328C83.738 95.805 74.079 98.32 64 98.32c-10.104 0-19.786-2.527-28.756-7.149l-.074-.291c-.37-1.82 1.25-3.43 3.08-3.09 7.38 1.36 16.22 2.16 25.74 2.16z" fill="#fff"/></symbol><symbol viewBox="0 0 128 128" id="smiley-emoji"><title>smiley-emoji</title><path d="M64 119.89C36.07 119.89 6 102.4 6 64 6 25.6 36.07 8.11 64 8.11c15.48 0 29.81 5.12 40.36 14.43C115.9 32.72 122 47.06 122 64c0 16.86-6.1 31.17-17.64 41.39-10.58 9.35-24.91 14.5-40.36 14.5z" fill="#fee133" fill-rule="nonzero"/><path d="M64 10.11c14.99 0 28.86 4.95 39.03 13.93C114.13 33.83 120 47.65 120 64c0 16.27-5.87 30.07-16.97 39.89-10.21 9.03-24.07 14-39.03 14-15.04 0-28.9-4.91-39.04-13.82C13.86 94.32 8 80.46 8 64c0-16.54 5.86-30.42 16.96-40.15C35.07 14.99 48.93 10.11 64 10.11m0-4c-31.15 0-60 20-60 57.89 0 37.68 28.85 57.89 60 57.89s60-20.73 60-57.89c0-37.37-28.85-57.89-60-57.89z" fill="#eb8f00" fill-rule="nonzero"/><path d="M63.47 62.53c-15.71 0-30.31-1.32-42.49-3.57-3.02-.56-5.69 2.1-5.08 5.11 4.04 19.81 23.55 36.08 47.55 36.08 26.27 0 43.94-16.8 47.61-36.15.57-2.99-2.1-5.6-5.09-5.04-12.18 2.25-26.78 3.57-42.5 3.57z" fill="#242424" fill-rule="nonzero"/><path d="M106.79 63.09c.07 0 .14.07.14.12a32.853 32.853 0 0 1-.917 3.689C92.642 73.036 78.34 76.35 63.48 76.35c-14.825 0-29.101-3.299-42.458-9.414a30.914 30.914 0 0 1-1.002-3.746c.01-.02.07-.1.18-.1h.01c12.86 2.38 27.82 3.64 43.26 3.64 15.44 0 30.41-1.26 43.28-3.65l.04.01z" fill="#fff"/><path d="M16.022 64.549l-.122-.479c-.56-2.74 1.6-5.18 4.27-5.18.27 0 .54.03.81.08 12.18 2.25 26.78 3.57 42.49 3.57 15.72 0 30.33-1.32 42.51-3.58.27-.06.54-.08.81-.08 2.685.051 4.785 2.429 4.27 5.12l-.131.552-.425.233-4.491 2.114c.379-1.21.68-2.442.917-3.689 0-.05-.07-.12-.14-.12l-.04-.01c-12.87 2.39-27.84 3.65-43.28 3.65-15.44 0-30.4-1.26-43.26-3.64h-.01c-.11 0-.17.08-.18.1.26 1.277.593 2.54 1.002 3.746l-4.569-2.151-.431-.236z" fill="#eb8f00"/><path d="M63.48 86.42c8.663 0 16.508 3.472 22.234 9.099-6.438 2.935-13.917 4.631-22.264 4.631-7.939 0-15.388-1.781-21.947-4.881 5.702-5.48 13.443-8.849 21.977-8.849z" fill="#ed7770"/><path d="M83.65 23.62c3.8 0 7.26 5.64 7.26 15s-3.46 15-7.26 15-7.26-5.64-7.26-15 3.46-15 7.26-15zm-39.38 0c-4.06 0-7.74 5.64-7.74 15s3.69 15 7.74 15c4.06 0 7.74-5.64 7.74-15s-3.68-15-7.74-15z" fill="#242424" fill-rule="nonzero"/></symbol><symbol viewBox="0 0 128 128" id="surprised-emoji"><title>surprised-emoji</title><path d="M63.99 119.89c-27.93 0-58-17.49-58-55.89 0-38.4 30.07-55.89 58-55.89 15.48 0 29.81 5.12 40.36 14.43 11.54 10.19 17.64 24.52 17.64 41.46 0 16.86-6.1 31.17-17.64 41.39-10.57 9.35-24.91 14.5-40.36 14.5z" fill="#fee133" fill-rule="nonzero"/><path d="M63.99 10.11c14.99 0 28.86 4.95 39.03 13.93 11.1 9.8 16.97 23.61 16.97 39.96 0 16.27-5.87 30.07-16.97 39.89-10.21 9.03-24.07 14-39.03 14-15.04 0-28.9-4.91-39.04-13.82C13.86 94.32 7.99 80.46 7.99 64c0-16.54 5.86-30.42 16.96-40.15 10.11-8.86 23.97-13.74 39.04-13.74m0-4c-31.15 0-60 20.01-60 57.89 0 37.68 28.85 57.89 60 57.89s60-20.73 60-57.89c0-37.37-28.85-57.89-60-57.89z" fill="#eb8f00" fill-rule="nonzero"/><path d="M86.94 23.69c-.04-.02-.09-.03-.13-.05-2.09-.68-1.74-3.88.69-3.6 1.89.25 3.8.8 5.64 1.66 5.05 2.33 8.82 6.54 10.58 11.1.85 2.29-2.19 3.42-3.33 1.54-2.97-4.74-7.75-8.68-13.45-10.65zm-46.2 0c.04-.02.09-.03.13-.05 2.09-.68 1.74-3.88-.69-3.6-1.89.25-3.8.8-5.64 1.66-5.05 2.33-8.82 6.54-10.58 11.1-.85 2.29 2.19 3.42 3.33 1.54 2.97-4.74 7.75-8.68 13.45-10.65z" fill="#eb8f00" fill-rule="nonzero" stroke="#eb8f00"/><path d="M77.82 96.94c0 5.6-6.19 8.89-13.82 8.89s-13.82-3.29-13.82-8.89c0-5.6 6.19-11.69 13.82-11.69s13.82 6.09 13.82 11.69z" fill="#242424" fill-rule="nonzero"/><circle cx="89.35" cy="57.68" r="19.38" fill="#fff"/><path d="M89.35 40.3c9.58 0 17.38 7.8 17.38 17.38 0 9.58-7.8 17.38-17.38 17.38-9.58 0-17.38-7.8-17.38-17.38 0-9.58 7.79-17.38 17.38-17.38m0-4c-11.81 0-21.38 9.57-21.38 21.38 0 11.81 9.57 21.38 21.38 21.38 11.81 0 21.38-9.57 21.38-21.38 0-11.81-9.57-21.38-21.38-21.38z" fill="#eb8f00" fill-rule="nonzero"/><path d="M89.35 48.26c4.19 0 8 3.54 8 9.42s-3.81 9.42-8 9.42c-4.19 0-8-3.54-8-9.42s3.81-9.42 8-9.42z" fill="#242424" fill-rule="nonzero"/><path d="M38.65 77c-10.69 0-19.38-8.69-19.38-19.38s8.69-19.38 19.38-19.38 19.38 8.69 19.38 19.38S49.34 77 38.65 77z" fill="#fff" fill-rule="nonzero"/><path d="M38.65 40.24c9.58 0 17.38 7.8 17.38 17.38C56.03 67.2 48.24 75 38.65 75s-17.38-7.8-17.38-17.38c0-9.58 7.8-17.38 17.38-17.38m0-4c-11.81 0-21.38 9.57-21.38 21.38C17.27 69.43 26.84 79 38.65 79c11.81 0 21.38-9.57 21.38-21.38 0-11.81-9.57-21.38-21.38-21.38z" fill="#eb8f00" fill-rule="nonzero"/><path d="M38.65 48.21c-4.19 0-8 3.54-8 9.42s3.81 9.42 8 9.42c4.19 0 8-3.54 8-9.42s-3.81-9.42-8-9.42z" fill="#242424" fill-rule="nonzero"/></symbol><symbol viewBox="0 0 128 128" id="tongue-emoji"><title>tongue-emoji</title><path d="M64 119.28c-27.94 0-58-17.49-58-55.9 0-38.4 30.07-55.9 58-55.9 15.48 0 29.81 5.13 40.36 14.43C115.9 32.1 122 46.44 122 63.38c0 16.86-6.1 31.18-17.64 41.39-10.57 9.35-24.91 14.51-40.36 14.51z" fill="#fee133" fill-rule="nonzero"/><path d="M64 9.48c14.99 0 28.86 4.95 39.04 13.93 11.1 9.8 16.97 23.62 16.97 39.96 0 16.27-5.87 30.07-16.97 39.89-10.21 9.03-24.07 14-39.03 14.01-15.04 0-28.9-4.91-39.04-13.82C13.86 93.7 8 79.84 8 63.38c0-16.54 5.86-30.42 16.96-40.15C35.07 14.37 48.93 9.48 64 9.48m0-4c-31.15 0-60 20.01-60 57.9 0 37.68 28.85 57.9 60 57.9s60-20.73 60-57.9c0-37.37-28.85-57.9-60-57.9z" fill="#eb8f00" fill-rule="nonzero"/><path d="M62.67 80.43c-12.72 0-24.54-1.07-34.4-2.89-2.45-.45-4.61 1.7-4.11 4.13 3.28 16.04 19.07 29.21 38.5 29.21 21.27 0 35.58-13.6 38.55-29.27.46-2.42-1.7-4.53-4.12-4.08-9.87 1.83-21.7 2.9-34.42 2.9z" fill="#242424" fill-rule="nonzero"/><path d="M96.85 81.86c-1.5 6.58-5.27 12.58-10.72 17-6.31 5.12-14.43 7.82-23.49 7.82-16.2 0-30.67-10.59-34.14-24.81 10.23 1.82 22.02 2.78 34.16 2.78 12.16-.01 23.95-.97 34.19-2.79m.89-4.39c-.22 0-.43.02-.66.06-9.86 1.83-21.69 2.9-34.42 2.9-12.72 0-24.54-1.07-34.4-2.89-.22-.04-.44-.06-.66-.06-2.16 0-3.91 1.98-3.46 4.2 3.28 16.04 19.07 29.21 38.5 29.21 21.27 0 35.58-13.6 38.55-29.27.43-2.2-1.31-4.15-3.45-4.15z" fill-opacity=".6" fill-rule="nonzero"/><path d="M82.25 84.144v24.796c-.01 9.478-7.659 17.159-17.22 17.21h-3.28c-9.51 0-17.21-7.71-17.21-17.21V84.296c5.849.497 11.939.744 18.12.744 6.715 0 13.322-.294 19.59-.896z" fill="#e04c74"/><path d="M82.24 84.145v24.795c0 9.5-7.7 17.21-17.21 17.21h-3.28c-9.5 0-17.21-7.7-17.21-17.21V84.296l.636.064 3.364.198v24.382c0 7.28 5.92 13.21 13.21 13.21h3.28c7.333-.053 13.21-5.952 13.21-13.21V84.47l1.932-.115 2.068-.21z" fill="#ab3f2e" fill-opacity=".3"/><path d="M65.39 84.987v19.333c-.084 2.09-3.889 2.748-4 0V85.015l1.27.025 2.73-.053z" fill="#ab3f2e" fill-opacity=".3"/><path d="M31.53 60.38l12.17-2.36-12.55-5.21c-.14-.07-.28-.15-.42-.23-2.61-1.6-3.06-4.89-.72-6.93 1.81-1.58 4.76-1.6 6.88-.3 4.98 3.05 16.7 10.24 21.27 13.04.82.5.7 1.58-.22 1.93l-22.91 8.6c-.15.06-.32.11-.48.16-3.03.84-6.32-.89-6.79-3.78-.36-2.2 1.34-4.25 3.77-4.92zm64.94-.25L84.3 57.78l12.55-5.21c.14-.07.28-.15.42-.23 2.61-1.6 3.06-4.89.72-6.93-1.81-1.58-4.76-1.6-6.88-.3-4.98 3.05-16.7 10.24-21.27 13.04-.82.5-.7 1.58.22 1.93l22.91 8.6c.15.06.32.11.48.16 3.03.84 6.32-.89 6.79-3.78.36-2.21-1.34-4.26-3.77-4.93z" fill="#242424" fill-rule="nonzero"/></symbol></svg>