<?xml version="1.0" encoding="UTF-8"?>
<svg
  xmlns="http://www.w3.org/2000/svg"
  xmlns:xlink="http://www.w3.org/1999/xlink"
  viewBox="0 0 128 128">
  <defs>
    <linearGradient id="angry-emoji-a" x1="64" x2="64" y1="-20.189" y2="82.992" gradientUnits="userSpaceOnUse">
      <stop stop-color="#E04C74" offset="0"/>
      <stop stop-color="#E35C6E" offset=".159"/>
      <stop stop-color="#EC855D" offset=".469"/>
      <stop stop-color="#FAC742" offset=".895"/>
      <stop stop-color="#FAC742" offset=".898"/>
    </linearGradient>
    <linearGradient id="angry-emoji-b" x1="64.832" x2="64.832" y1="19.494" y2="107.24" gradientUnits="userSpaceOnUse">
      <stop stop-color="#E04C74" offset="0"/>
      <stop stop-color="#E35C6E" offset=".159"/>
      <stop stop-color="#EC855D" offset=".469"/>
      <stop stop-color="#FAC742" offset=".895"/>
      <stop stop-color="#FAC742" offset=".898"/>
    </linearGradient>
    <path id="cat-c" d="M63.47 83.61c-10.54 0-20.35-.88-28.52-2.4-2.03-.38-3.82 1.41-3.41 3.43 2.72 13.3 15.81 24.22 31.92 24.22 17.63 0 29.5-11.28 31.97-24.27.38-2.01-1.41-3.76-3.42-3.38-8.18 1.52-17.99 2.4-28.54 2.4z"/>
    <linearGradient id="cat-a" x1="64" x2="64" y1="25.031" y2="107.67" gradientUnits="userSpaceOnUse">
      <stop stop-color="#FED133" offset=".509"/>
      <stop stop-color="#FDCE32" offset=".634"/>
      <stop stop-color="#FCC32E" offset=".741"/>
      <stop stop-color="#F9B128" offset=".84"/>
      <stop stop-color="#F6A323" offset=".9"/>
    </linearGradient>
    <linearGradient id="cat-b" x1="64" x2="64" y1="66" y2="78.464" gradientUnits="userSpaceOnUse">
      <stop stop-color="#75443E" offset=".163"/>
      <stop stop-color="#512926" offset=".45"/>
      <stop stop-color="#290B0A" offset=".812"/>
      <stop stop-color="#1A0000" offset="1"/>
    </linearGradient>
    <clipPath id="cat-d">
      <use xlink:href="#cat-c"/>
    </clipPath>
    <path id="cat-e" d="M27.73 72.84v10c11 6.46 23.07 10.05 35.74 10.05 12.68 0 24.75-3.59 35.74-10.05v-10H27.73zm35.75 26.81c-7.91 0-14.81 4.31-18.48 10.71 4.78 2.61 11.3 4.22 18.48 4.22 7.19 0 13.7-1.61 18.48-4.22-3.68-6.4-10.57-10.71-18.48-10.71z"/>
    <clipPath id="cat-f">
      <use xlink:href="#cat-e"/>
    </clipPath>
    <path id="computer-b" d="M-42.13-44.78c-.91-4.32-4.3-20.06-5.87-27.34-.47-2.21-2.11-3.82-3.99-3.82-5.36 0-15.39-.06-16.6-.06h-44.08c-.61 0-2.56.07-4.11 1.8-4.7 5.26-12.54 20.51-13.76 22.05-.08.1-6.27 2.28-9.09 3.96-1.12.67-1.74 2.13-1.9 3.62l-2.46 20.76c-.64 4.09 1.7 5.81 5.37 5.81h91.51c2.8 0 5.11-.79 5.11-5.8v-19.74c0-.42-.05-.83-.13-1.24z"/>
    <linearGradient id="computer-a" x1="-93.047" x2="-93.047" y1="-73.413" y2="-17.291" gradientUnits="userSpaceOnUse">
      <stop stop-color="#eee" offset=".005"/>
      <stop stop-color="#EAEAEA" offset=".282"/>
      <stop stop-color="#ddd" offset=".577"/>
      <stop stop-color="#C8C8C8" offset=".879"/>
      <stop stop-color="#BDBDBD" offset="1"/>
    </linearGradient>
    <linearGradient id="computer-c" x1="46.43" x2="46.43" y1="-117.5" y2="-61.374" gradientUnits="userSpaceOnUse">
      <stop stop-color="#616161" offset=".011"/>
      <stop stop-color="#5D5D5D" offset=".25"/>
      <stop stop-color="#505050" offset=".504"/>
      <stop stop-color="#3B3B3B" offset=".766"/>
      <stop stop-color="#212121" offset="1"/>
    </linearGradient>
    <linearGradient id="computer-e" x1="63.938" x2="63.938" y1="-14.732" y2="4.139" gradientTransform="matrix(1 0 0 -1 0 89.343)" gradientUnits="userSpaceOnUse">
      <stop stop-color="#E0E0E0" offset="0"/>
      <stop stop-color="#9E9E9E" offset="1"/>
    </linearGradient>
    <linearGradient id="computer-f" x1="63.883" x2="63.883" y1="20.113" y2="84.671" gradientUnits="userSpaceOnUse">
      <stop stop-color="#E0E0E0" offset=".006"/>
      <stop stop-color="#9E9E9E" offset=".999"/>
    </linearGradient>
    <linearGradient id="cool-emoji-a" x1="63.992" x2="63.992" y1="20.702" y2="106.73" gradientUnits="userSpaceOnUse">
      <stop stop-color="#FEE133" offset=".5"/>
      <stop stop-color="#FEDE32" offset=".612"/>
      <stop stop-color="#FCD32F" offset=".708"/>
      <stop stop-color="#FAC12B" offset=".797"/>
      <stop stop-color="#F7A924" offset=".883"/>
      <stop stop-color="#F6A323" offset=".9"/>
    </linearGradient>
    <path id="cry-b" d="M37.64 97.09c2.96 4.36 8.73 5.74 13.36 3.24 3.91-2.1 8.32-3.29 13-3.29s9.09 1.19 13 3.29c4.64 2.5 10.41 1.11 13.36-3.24 2.14-3.15 2.33-7.22.56-10.59C85.44 76.06 75.44 69.07 64 69.07S42.56 76.06 37.08 86.5c-1.77 3.38-1.58 7.44.56 10.59z"/>
    <linearGradient id="cry-a" x1="64" x2="64" y1="19.717" y2="107.7" gradientUnits="userSpaceOnUse">
      <stop stop-color="#F6A323" offset=".566"/>
      <stop stop-color="#FEE133" offset=".917"/>
    </linearGradient>
    <clipPath id="cry-c">
      <use xlink:href="#cry-b"/>
    </clipPath>
    <linearGradient id="crying-emoji-a" x1="64" x2="64" y1="19.717" y2="107.7" gradientUnits="userSpaceOnUse">
      <stop stop-color="#F6A323" offset=".566"/>
      <stop stop-color="#FEE133" offset=".917"/>
    </linearGradient>
    <path id="dizzy-emoji-b" d="M64 64.87c-16.03 0-33.43 16.18-33.43 36.14 0 5.58 5.31 8.83 10.05 6.56 5.86-2.8 14.49-8.36 23.38-8.36s17.52 5.56 23.38 8.36c4.74 2.27 10.05-.98 10.05-6.56 0-19.96-18.61-36.14-33.43-36.14z"/>
    <linearGradient id="dizzy-emoji-a" x1="64" x2="64" y1="19.717" y2="107.7" gradientUnits="userSpaceOnUse">
      <stop stop-color="#F6A323" offset=".566"/>
      <stop stop-color="#FEE133" offset=".917"/>
    </linearGradient>
    <clipPath id="dizzy-emoji-c">
      <use xlink:href="#dizzy-emoji-b"/>
    </clipPath>
    <path id="dizzy-emoji-d" d="M64 78.79c11.75 0 22.65 1.84 31.26 5.2V51.34H32.75v32.65c8.6-3.36 19.5-5.2 31.25-5.2z"/>
    <clipPath id="dizzy-emoji-e">
      <use xlink:href="#dizzy-emoji-d"/>
    </clipPath>
    <path id="grossed-emoji-b" d="M93.86 73.67c4.76 0 8.64 4.6 8.64 10.25s-3.87 10.25-8.64 10.25H34.14c-4.76 0-8.64-4.6-8.64-10.25s3.87-10.25 8.64-10.25h59.72"/>
    <linearGradient id="grossed-emoji-a" x1="64" x2="64" y1="19.717" y2="107.7" gradientUnits="userSpaceOnUse">
      <stop stop-color="#FEE133" offset=".5"/>
      <stop stop-color="#FEDE32" offset=".612"/>
      <stop stop-color="#FCD32F" offset=".708"/>
      <stop stop-color="#FAC12B" offset=".797"/>
      <stop stop-color="#F7A924" offset=".883"/>
      <stop stop-color="#F6A323" offset=".9"/>
    </linearGradient>
    <clipPath id="grossed-emoji-c">
      <use xlink:href="#grossed-emoji-b"/>
    </clipPath>
    <linearGradient id="heart-emoji-a" x1="64" x2="64" y1="19.717" y2="107.7" gradientUnits="userSpaceOnUse">
      <stop stop-color="#FEE133" offset=".5"/>
      <stop stop-color="#FEDE32" offset=".612"/>
      <stop stop-color="#FCD32F" offset=".708"/>
      <stop stop-color="#FAC12B" offset=".797"/>
      <stop stop-color="#F7A924" offset=".883"/>
      <stop stop-color="#F6A323" offset=".9"/>
    </linearGradient>
    <radialGradient id="heart-emoji-b" cx="32.34" cy="68.577" r="19.444" gradientTransform="matrix(.9791 0 0 .877 2.087 11.44)" gradientUnits="userSpaceOnUse">
      <stop stop-color="#ED7770" offset="0"/>
      <stop stop-color="#ED7770" stop-opacity="0" offset=".9"/>
    </radialGradient>
    <radialGradient id="heart-emoji-c" cx="94.132" cy="68.577" r="19.444" gradientTransform="matrix(.9791 0 0 .877 2.087 11.44)" gradientUnits="userSpaceOnUse">
      <stop stop-color="#ED7770" offset="0"/>
      <stop stop-color="#ED7770" stop-opacity="0" offset=".9"/>
    </radialGradient>
    <path id="monkey-c" d="M70.56 102.78c11.78-2.35 19.56-10.93 21.39-20.6.33-1.76-1.23-3.29-2.99-2.96-7.16 1.33-15.74 2.1-24.97 2.1s-17.8-.77-24.96-2.1c-1.77-.33-3.34 1.23-2.98 3 2.38 11.64 13.83 21.19 27.93 21.19 2.31 0 4.51-.22 6.58-.63"/>
    <linearGradient id="monkey-a" x1="64.071" x2="64.071" y1="113.87" y2="13.865" gradientUnits="userSpaceOnUse">
      <stop stop-color="#825C40" offset="0"/>
      <stop stop-color="#855F41" offset=".167"/>
      <stop stop-color="#906746" offset=".31"/>
      <stop stop-color="#A2764D" offset=".445"/>
      <stop stop-color="#A97C50" offset=".488"/>
    </linearGradient>
    <linearGradient id="monkey-b" x1="64.071" x2="64.071" y1="36.395" y2="109.5" gradientUnits="userSpaceOnUse">
      <stop stop-color="#E6B175" offset=".259"/>
      <stop stop-color="#E2AC70" offset=".455"/>
      <stop stop-color="#D59E62" offset=".686"/>
      <stop stop-color="#C0884A" offset=".935"/>
      <stop stop-color="#BD8446" offset=".969"/>
    </linearGradient>
    <clipPath id="monkey-d">
      <use xlink:href="#monkey-c"/>
    </clipPath>
    <path id="poo-b" d="M63.99 89.95c-9.52 0-18.36-.8-25.74-2.16-1.83-.34-3.45 1.27-3.08 3.09 2.45 12 14.27 21.86 28.81 21.86 15.91 0 26.63-10.18 28.85-21.9.34-1.81-1.27-3.39-3.08-3.05-7.38 1.36-16.23 2.16-25.76 2.16z"/>
    <linearGradient id="poo-a" x1="63.997" x2="63.997" y1="14.837" y2="122.33" gradientUnits="userSpaceOnUse">
      <stop stop-color="#CCA093" offset=".003"/>
      <stop stop-color="#8A533F" offset=".842"/>
    </linearGradient>
    <clipPath id="poo-c">
      <use xlink:href="#poo-b"/>
    </clipPath>
    <path id="smiley-emoji-b" d="M63.47 62.53c-15.71 0-30.31-1.32-42.49-3.57-3.02-.56-5.69 2.1-5.08 5.11 4.04 19.81 23.55 36.08 47.55 36.08 26.27 0 43.94-16.8 47.61-36.15.57-2.99-2.1-5.6-5.09-5.04-12.18 2.25-26.78 3.57-42.5 3.57z"/>
    <linearGradient id="smiley-emoji-a" x1="64" x2="64" y1="19.717" y2="107.7" gradientUnits="userSpaceOnUse">
      <stop stop-color="#FEE133" offset=".5"/>
      <stop stop-color="#FEDE32" offset=".612"/>
      <stop stop-color="#FCD32F" offset=".708"/>
      <stop stop-color="#FAC12B" offset=".797"/>
      <stop stop-color="#F7A924" offset=".883"/>
      <stop stop-color="#F6A323" offset=".9"/>
    </linearGradient>
    <clipPath id="smiley-emoji-c">
      <use xlink:href="#smiley-emoji-b"/>
    </clipPath>
    <path id="smiley-emoji-d" d="M10.24 46.49v14.89C26.62 71 44.6 76.35 63.48 76.35s36.86-5.35 53.24-14.97V46.49H10.24zm53.24 39.93c-11.78 0-22.05 6.42-27.53 15.95 7.12 3.89 16.83 6.29 27.53 6.29 10.71 0 20.41-2.4 27.53-6.29-5.48-9.53-15.75-15.95-27.53-15.95z"/>
    <clipPath id="smiley-emoji-e">
      <use xlink:href="#smiley-emoji-d"/>
    </clipPath>
    <path id="surprised-emoji-b" d="M64 79.26c6.94 0 13.25 5.84 13.25 15.53S70.94 110.32 64 110.32s-13.25-5.84-13.25-15.53S57.06 79.26 64 79.26z"/>
    <linearGradient id="surprised-emoji-a" x1="63.992" x2="63.992" y1="19.717" y2="107.7" gradientUnits="userSpaceOnUse">
      <stop stop-color="#FEE133" offset=".5"/>
      <stop stop-color="#FEDE32" offset=".612"/>
      <stop stop-color="#FCD32F" offset=".708"/>
      <stop stop-color="#FAC12B" offset=".797"/>
      <stop stop-color="#F7A924" offset=".883"/>
      <stop stop-color="#F6A323" offset=".9"/>
    </linearGradient>
    <path id="tongue-emoji-b" d="M62.67 80.43c-12.72 0-24.54-1.07-34.4-2.89-2.45-.45-4.61 1.7-4.11 4.13 3.28 16.04 19.07 29.21 38.5 29.21 21.27 0 35.58-13.6 38.55-29.27.46-2.42-1.7-4.53-4.12-4.08-9.87 1.83-21.7 2.9-34.42 2.9z"/>
    <linearGradient id="tongue-emoji-a" x1="64" x2="64" y1="19.096" y2="107.08" gradientUnits="userSpaceOnUse">
      <stop stop-color="#FEE133" offset=".5"/>
      <stop stop-color="#FEDE32" offset=".612"/>
      <stop stop-color="#FCD32F" offset=".708"/>
      <stop stop-color="#FAC12B" offset=".797"/>
      <stop stop-color="#F7A924" offset=".883"/>
      <stop stop-color="#F6A323" offset=".9"/>
    </linearGradient>
    <clipPath id="tongue-emoji-c">
      <use xlink:href="#tongue-emoji-b"/>
    </clipPath>
    <path id="tongue-emoji-d" d="M28.27 82.35v44.16h68.05V82.35c-10.12 1.76-21.72 2.69-33.66 2.69-11.92 0-23.5-.92-33.61-2.68"/>
    <clipPath id="tongue-emoji-e">
      <use xlink:href="#tongue-emoji-d"/>
    </clipPath>
  </defs>
  <symbol viewBox="0 0 128 128" id="angry-emoji">
    <title>angry-emoji</title>
    <path d="M64 119.89C36.07 119.89 6 102.4 6 64S36.07 8.11 64 8.11c15.48 0 29.81 5.12 40.36 14.43C115.9 32.72 122 47.06 122 64c0 16.86-6.1 31.17-17.64 41.39-10.58 9.35-24.91 14.5-40.36 14.5z" fill="url(#angry-emoji-a)"/>
    <path d="M64 10.11c14.99 0 28.86 4.95 39.03 13.93C114.13 33.83 120 47.65 120 64c0 16.27-5.87 30.07-16.97 39.89-10.21 9.03-24.07 14-39.03 14-15.04 0-28.9-4.91-39.04-13.82C13.86 94.32 8 80.46 8 64c0-16.54 5.86-30.42 16.96-40.15C35.07 14.99 48.93 10.11 64 10.11m0-4c-31.15 0-60 20-60 57.89 0 37.68 28.85 57.89 60 57.89s60-20.73 60-57.89c0-37.37-28.85-57.89-60-57.89z" fill="#CC2362"/>
    <path d="M64.83 119.4c-27.86 0-57.84-17.44-57.84-55.74S36.97 7.92 64.83 7.91c15.44 0 29.73 5.11 40.25 14.39 11.51 10.16 17.59 24.46 17.59 41.35 0 16.82-6.08 31.09-17.59 41.27-10.54 9.34-24.84 14.48-40.25 14.48z" fill="url(#angry-emoji-b)"/>
    <path d="M64.83 9.91c14.95 0 28.77 4.93 38.92 13.89 11.07 9.77 16.92 23.55 16.92 39.85 0 16.23-5.85 29.98-16.92 39.78-10.18 9.01-24 13.96-38.92 13.96-15 0-28.82-4.89-38.93-13.78C14.84 93.89 8.99 80.07 8.99 63.66c0-16.49 5.85-30.34 16.91-40.03C35.98 14.78 49.81 9.91 64.83 9.91m0-4c-31.07 0-59.84 19.95-59.84 57.74 0 37.58 28.77 57.74 59.84 57.74s59.84-20.67 59.84-57.74c0-37.27-28.77-57.74-59.84-57.74z" fill="#CC2362"/>
    <path d="M83.94 103.14a2.28 2.28 0 0 1-.89-.62c-4.16-4.7-10.99-7.79-18.31-7.79-7.31 0-14.15 3.09-18.31 7.79-.25.28-.55.49-.89.62-.75.28-1.6.12-2.2-.41-.58-.52-.79-1.31-.49-2.08 2.98-7.63 11.84-13.64 21.89-13.64s18.91 6 21.89 13.64c.3.76.09 1.56-.49 2.08-.6.53-1.46.69-2.2.41z" fill="#242424"/>
    <g fill="#242424">
      <path d="M55.84 73.55c-.69 0-1.34-.25-1.89-.72-2.98-2.55-12.74-7.93-16.33-9.69-1.34-.65-1.98-1.97-1.67-3.32.31-1.34 1.45-2.27 2.79-2.27.25 0 .5.03.75.1 1.32.34 2.61.8 3.85 1.37 3.33 1.56 12.56 6.98 14.8 9.8.71.9.85 2.04.36 3.05-.5 1.02-1.54 1.68-2.66 1.68zM73.63 73.55c.69 0 1.35-.25 1.89-.72 2.98-2.55 12.74-7.93 16.33-9.69 1.34-.65 1.98-1.97 1.67-3.32-.31-1.34-1.45-2.27-2.79-2.27-.25 0-.5.03-.75.1-1.32.34-2.61.8-3.85 1.37-3.33 1.56-12.56 6.98-14.8 9.8-.71.9-.85 2.04-.36 3.05.51 1.02 1.55 1.68 2.66 1.68z"/>
      <path d="M41.01 75.17c0 4.29 3.36 7.77 7.5 7.77s7.5-3.48 7.5-7.77v-1.46c0-4.29-3.36-7.77-7.5-7.77s-7.5 3.48-7.5 7.77v1.46zM73.47 75.17c0 4.29 3.36 7.77 7.5 7.77s7.5-3.48 7.5-7.77v-1.46c0-4.29-3.36-7.77-7.5-7.77s-7.5 3.48-7.5 7.77v1.46z"/>
    </g>
  </symbol>
  <symbol viewBox="0 0 128 128" id="cat">
    <title>cat</title>
    <path d="M21.77 55.7c-2.21 0-4.1-.54-5.63-1.6C3.44 45.27 5.63 16.18 5.65 15.89c.32-4 3.38-7.02 7.12-7.02.23 0 .47.01.7.04 11.3 1.15 26 5.56 33.36 14.49 3.78 4.59 2.47 10.03.7 13.78-4.56 9.69-16.84 18.52-25.76 18.52z" fill="#FED133"/>
    <path d="M12.77 10.38c.18 0 .37.01.55.03 11 1.12 25.28 5.37 32.36 13.95 1.81 2.2 3.37 6.1.5 12.19C41.9 45.62 30.04 54.2 21.77 54.2c-1.9 0-3.5-.45-4.78-1.34-9.96-6.91-10.48-28.94-9.84-36.85.25-3.21 2.67-5.63 5.62-5.63m0-3c-4.51 0-8.23 3.66-8.62 8.39-.54 6.73-.7 31.33 11.13 39.55 1.86 1.29 4.08 1.87 6.49 1.87 14.82 0 36.81-21.92 26.23-34.75-8.05-9.76-23.6-13.93-34.37-15.03-.29-.02-.58-.03-.86-.03z" fill="#EB8F00"/>
    <path d="M5.81 22.04c.05-1.31.2-2.74 1.09-3.67 1.18-1.24 3.13-1.11 4.78-.76 4.49.95 8.77 2.96 12.42 5.83 1.82 1.43 3.55 3.2 4.09 5.48.82 3.51-1.38 6.93-3.47 9.83-1.46 2.02-2.93 4.06-4.79 5.69-1.55 1.37-4.73 3.43-6.8 3.68-2.08.25-1.61-2.35-2.46-4.02a45.353 45.353 0 0 1-4.42-14.04c-.39-2.65-.54-5.34-.44-8.02z" fill="#EB8F00"/>
    <path d="M106.23 56c-8.92 0-21.2-8.98-25.77-18.67-1.77-3.75-3.08-9.27.7-13.86 7.37-8.93 22.06-13.38 33.36-14.53.24-.02.47-.05.7-.05 3.74 0 6.8 3.01 7.12 7.01.02.29 2.22 29.53-10.48 38.35a9.755 9.755 0 0 1-5.63 1.75z" fill="#FED133"/>
    <path d="M115.23 10.38c2.95 0 5.37 2.42 5.63 5.64.64 7.9.11 29.93-9.85 36.85-1.28.89-2.88 1.34-4.78 1.34-8.27 0-20.13-8.58-24.41-17.65-2.87-6.09-1.31-9.99.5-12.19 7.08-8.58 21.36-12.83 32.36-13.95.18-.04.37-.04.55-.04m0-3c-.28 0-.57.01-.85.04C103.61 8.51 88.05 12.68 80 22.44 69.42 35.28 91.41 57.2 106.23 57.2c2.41 0 4.63-.58 6.49-1.87 11.83-8.22 11.67-32.83 11.12-39.55-.38-4.75-4.1-8.4-8.61-8.4z" fill="#EB8F00"/>
    <path d="M122.19 22.04c-.05-1.31-.2-2.74-1.09-3.67-1.18-1.24-3.13-1.11-4.78-.76-4.49.95-8.77 2.96-12.42 5.83-1.82 1.43-3.55 3.2-4.09 5.48-.82 3.51 1.38 6.93 3.47 9.83 1.46 2.02 2.93 4.06 4.79 5.69 1.55 1.37 3.75 2.14 5.7 2.91 3.23 1.27 2.72-1.58 3.56-3.25 2.22-4.38 3.72-9.15 4.42-14.04.39-2.65.54-5.34.44-8.02z" fill="#EB8F00"/>
    <path d="M64 119.12c-25.77 0-53.5-16.43-53.5-52.5s27.73-52.5 53.5-52.5c14.27 0 27.48 4.81 37.21 13.54 10.66 9.57 16.29 23.04 16.29 38.96 0 15.84-5.63 29.29-16.29 38.89-9.76 8.78-22.97 13.61-37.21 13.61z" fill="url(#cat-a)"/>
    <path d="M64 15.62c13.9 0 26.75 4.67 36.2 13.16 10.33 9.28 15.8 22.37 15.8 37.84 0 15.4-5.46 28.46-15.8 37.77-9.47 8.53-22.33 13.23-36.2 13.23-25.04 0-52-15.96-52-51 0-15.65 5.46-28.8 15.79-38.01C37.18 20.24 50.04 15.63 64 15.62m0-3c-28.56 0-55 18.66-55 54 0 35.15 26.44 54 55 54 28.55 0 55-19.33 55-54 0-34.85-26.44-53.99-55-54z" fill="#EB8F00"/>
    <g fill="none" stroke="#404040" stroke-linecap="round" stroke-linejoin="round" stroke-miterlimit="10" stroke-width="4">
      <path d="M8.65 105.57l19.9-10.41M27.15 88.01l-21.1 2.94M6.05 75.68l21.27 5.24"/>
    </g>
    <g fill="none" stroke="#404040" stroke-linecap="round" stroke-linejoin="round" stroke-miterlimit="10" stroke-width="4">
      <path d="M119.35 105.57l-19.9-10.41M100.85 88.01l21.1 2.94M121.95 75.68l-21.27 5.24"/>
    </g>
    <path fill="none" stroke="#EB8F00" stroke-linecap="round" stroke-linejoin="round" stroke-miterlimit="10" stroke-width="7" d="M55.5 17v21M71.5 17v21"/>
    <g fill="#404040">
      <ellipse cx="37.14" cy="59.64" rx="8.84" ry="10"/>
      <ellipse cx="90.86" cy="59.51" rx="8.84" ry="10"/>
    </g>
    <g fill="none" stroke="#404040" stroke-linecap="round" stroke-linejoin="round" stroke-miterlimit="10" stroke-width="4">
      <path d="M54.31 95.19c5.35 0 9.69-4.38 9.69-9.67V78M73.69 95.19c-5.35 0-9.69-4.38-9.69-9.67V78"/>
    </g>
    <path d="M66.47 77.31l5.44-5.97c1.89-2.13.38-5.34-2.47-5.34H58.56c-2.85 0-4.36 3.21-2.47 5.34l5.44 6.05c1.31 1.48 3.63 1.41 4.94-.08z" fill="url(#cat-b)"/>
    
    <path d="M63.47 83.61c-10.54 0-20.35-.88-28.52-2.4-2.03-.38-3.82 1.41-3.41 3.43 2.72 13.3 15.81 24.22 31.92 24.22 17.63 0 29.5-11.28 31.97-24.27.38-2.01-1.41-3.76-3.42-3.38-8.18 1.52-17.99 2.4-28.54 2.4z" clip-path="url(#cat-d)" fill="#242424"/>
    <path d="M99.22 82.84v-10H27.73v10c11 6.46 23.07 10.05 35.74 10.05s24.76-3.59 35.75-10.05z" clip-path="url(#cat-d)" fill="#fff"/>
    <path d="M63.48 99.65c-7.91 0-14.81 4.31-18.48 10.71 4.78 2.61 11.3 4.22 18.48 4.22s13.7-1.61 18.48-4.22c-3.68-6.4-10.57-10.71-18.48-10.71z" clip-path="url(#cat-d)" fill="#ED7770"/>
    <g clip-path="url(#cat-d)">
      <g clip-path="url(#cat-f)">
        <path d="M90.85 85.69c-1.35 4.88-4.28 9.32-8.37 12.64-5.1 4.14-11.68 6.32-19.02 6.32-12.7 0-24.08-8.02-27.32-18.95 8.26 1.39 17.66 2.12 27.33 2.12 9.69 0 19.11-.73 27.38-2.13m1.7-4.53c-.18 0-.36.02-.54.05-8.18 1.52-17.99 2.4-28.54 2.4-10.54 0-20.35-.88-28.52-2.4a3.39 3.39 0 0 0-.54-.05c-1.79 0-3.24 1.64-2.87 3.48 2.72 13.3 15.81 24.22 31.92 24.22 17.63 0 29.5-11.28 31.97-24.27.34-1.82-1.1-3.43-2.88-3.43z" fill="#EB8F00"/>
      </g>
    </g>
  </symbol>
  <symbol viewBox="0 0 128 128" id="computer">
    <title>computer</title>
    <path d="M-42.13-44.72c-.91-4.33-4.3-20.11-5.87-27.41-.47-2.21-2.11-3.82-3.99-3.81-5.36 0-15.39-.05-16.6-.05h-44.08c-.61 0-2.56.06-4.11 1.79-4.7 5.27-12.54 20.52-13.76 22.07-.08.1-6.27 2.31-9.09 4-1.12.67-1.74 2.13-1.9 3.63l-2.46 20.75c-.64 4.1 1.7 5.76 5.37 5.76h91.51c2.8 0 5.11-.68 5.11-5.69v-19.79c0-.43-.05-.85-.13-1.25z" fill="url(#computer-a)"/>
    <path d="M-51.98-73c.36 0 .87.59 1.05 1.44 1.46 6.78 4.95 23.06 5.86 27.43.04.2.07.44.07.66v19.79c0 2.81-.49 2.69-2.11 2.69h-91.51c-1.3 0-2.02-.23-2.25-.5s-.3-.92-.16-1.77c.01-.04.01-.06.02-.09l2.47-20.83c.08-.8.36-1.28.46-1.36 1.87-1.12 5.83-2.66 7.51-3.31 1.46-.57 1.86-.72 2.39-1.39.5-.63 1.28-2 2.99-5.03 2.85-5.03 7.61-13.53 10.65-16.93.57-.64 1.22-.79 1.87-.79h60.69-.02m.02-3.01s-.01 0 0 0h-60.7c-.63 0-2.55.08-4.08 1.79-4.7 5.27-12.54 20.52-13.76 22.07-.08.1-6.27 2.31-9.09 4-1.12.67-1.74 2.13-1.9 3.63l-2.46 20.75c-.64 4.1 1.7 5.76 5.37 5.76h91.51c2.8 0 5.11-.68 5.11-5.69v-19.79c0-.42-.05-.84-.13-1.24-.91-4.33-4.3-20.17-5.87-27.47-.49-2.21-2.13-3.81-4-3.81z" fill="#424242" opacity=".2"/>
    <path d="M97.35-88.93c-.91-4.33-4.3-20.11-5.86-27.41-.47-2.21-2.11-3.75-3.99-3.75-5.36 0-15.39.01-16.6.01H26.82c-.61 0-2.56-.01-4.11 1.73C18-113.07 10.16-97.86 8.95-96.31c-.08.1-6.27 2.3-9.09 3.99-1.12.67-1.74 2.12-1.9 3.62L-4.5-67.9c-.64 4.1 1.7 5.82 5.37 5.82h91.51c2.8 0 5.1-.8 5.1-5.81v-19.79c-.01-.43-.05-.84-.13-1.25z" fill="url(#computer-c)"/>  
    <path d="M87.5-117.08c.36 0 .87.53 1.05 1.38 1.46 6.78 4.94 23.03 5.86 27.4.04.2.06.41.06.63v19.79c0 2.81-.49 2.81-2.1 2.81H.86c-1.3 0-2.02-.29-2.25-.56s-.3-.95-.16-1.8l.02-.1L.94-88.37c.08-.8.36-1.28.46-1.36 1.87-1.12 5.83-2.66 7.51-3.31 1.46-.57 1.86-.72 2.39-1.39.5-.63 1.28-2 2.99-5.03 2.85-5.03 7.61-13.46 10.65-16.87.57-.64 1.22-.72 1.87-.72h44.08c.75 0 4.89 0 9.21-.01l7.4-.02m0-3c-5.36 0-15.39.01-16.6.01H26.8c-.63 0-2.55.01-4.08 1.73C18-113.07 10.16-97.86 8.95-96.31c-.08.1-6.27 2.3-9.09 3.99-1.12.67-1.74 2.12-1.9 3.62L-4.5-67.9c-.64 4.1 1.7 5.82 5.37 5.82h91.51c2.8 0 5.1-.8 5.1-5.81v-19.79c0-.42-.04-.84-.13-1.24-.91-4.33-4.3-20.11-5.86-27.41-.48-2.22-2.12-3.75-3.99-3.75z" fill="#eee" opacity=".2"/>
    <path fill="url(#computer-e)" d="M112.59 85.08H15.18L4 104.12h119.88z"/>
    <path d="M19.08 82.42l89.61.01 11.68 19.7H7.5l11.58-19.71m-1.15-2L4 104.12h119.88l-14.05-23.7h-91.9z" fill="#424242" opacity=".2"/>
    <g fill="#F5F5F5">
      <path d="M26.79 88.03h-6.44l.87-1.68h6.46zM36.87 88.03h-6.44l.8-1.68h6.61zM46.46 88.03h-6.44l.92-1.68h6.45zM56 88.03h-6.44l1.04-1.68h6.03zM65.4 88.03h-6.44l.51-1.68h5.41zM75 88.03h-6.45l-.71-1.68h6.1zM84.84 88.03H78.4l-1.22-1.68h6.44zM94.33 88.03h-6.44l-1.15-1.68h6.45zM107.23 88.03h-9.67l-1.23-1.68h9.95zM102.3 90.54h6.44l-1.14-1.68h-6.54zM91.77 90.54h6.44l-1.23-1.68h-6.44zM82.16 90.54h6.44l-1.09-1.68h-6.43zM71.83 90.54h6.44l-1.15-1.68h-6.07zM62.61 90.54h6.44l-.71-1.68h-5.43zM53.39 90.54h6.44l.39-1.68h-6.24zM43.3 90.54h6.44l.78-1.68h-6.18zM32.08 90.54h6.44l1-1.68h-6.45zM18.94 90.54h9.68l.95-1.68h-9.71zM79.95 93.05h6.45l-1.12-1.68h-6.44zM69.69 93.05h6.44l-.94-1.68h-6.04zM57.59 93.05h6.44l-.18-1.68h-5.76zM46.07 93.05h6.45l.57-1.68h-6.18zM33.94 93.05h6.45l1.02-1.68h-6.45zM17.69 93.05h12.85l1.06-1.68H18.63zM90.83 93.08h19.3l-1.15-1.74H89.69zM105.49 95.56h6.44l-1.3-1.68h-6.44zM93.46 95.56h6.45l-1.26-1.68h-6.44zM42.13 95.56h43.75l-1.01-1.68H43.12zM28.39 95.56h6.44l.79-1.68h-6.3zM16.08 95.56h6.45l.76-1.68H17zM41.44 99.99h44.81l-1.92-3.48H43.3z"/>
    </g>
    <path d="M121.74 108.05H6.14c-1.18 0-2.14-.96-2.14-2.14v-1.79h119.88v1.79c0 1.19-.96 2.14-2.14 2.14z" fill="#9E9E9E"/>
    <path d="M122.88 105.12v.79c0 .63-.51 1.14-1.14 1.14H6.14c-.63 0-1.14-.51-1.14-1.14v-.79h117.88m1-1H4v1.79c0 1.18.96 2.14 2.14 2.14h115.6c1.18 0 2.14-.96 2.14-2.14v-1.79z" fill="#424242" opacity=".2"/>
    <path d="M112.59 85.08H15.18V22.79c0-1.57 1.27-2.84 2.84-2.84h91.72c1.57 0 2.84 1.27 2.84 2.84v62.29z" fill="url(#computer-f)"/>
    <path d="M109.74 21.95c.47 0 .84.38.84.84v60.29h-93.4V22.79c0-.47.38-.84.84-.84h91.72m0-2H18.02c-1.57 0-2.84 1.27-2.84 2.84v62.29h97.41V22.79c0-1.57-1.28-2.84-2.85-2.84z" fill="#424242" opacity=".2"/>
    <path fill="#616161" d="M24.02 27.23h79.66v49.9H24.02z"/>
  </symbol>
  <symbol viewBox="0 0 128 128" id="cool-emoji">
    <title>cool-emoji</title>
    <path d="M63.99 118.65c-27.31 0-56.71-17.1-56.71-54.65S36.68 9.35 63.99 9.35c15.14 0 29.15 5.01 39.46 14.11C114.74 33.42 120.7 47.44 120.7 64c0 16.49-5.96 30.48-17.25 40.47-10.33 9.14-24.35 14.18-39.46 14.18z" fill="url(#cool-emoji-a)"/>
    <path d="M63.99 11.35c14.65 0 28.19 4.83 38.14 13.61C112.97 34.53 118.7 48.03 118.7 64c0 15.9-5.73 29.37-16.58 38.97-9.97 8.82-23.51 13.68-38.14 13.68-14.69 0-28.24-4.8-38.15-13.5C15.01 93.62 9.28 80.08 9.28 64c0-16.16 5.73-29.72 16.56-39.22 9.88-8.66 23.43-13.43 38.15-13.43m0-4C33.51 7.35 5.28 26.93 5.28 64c0 36.87 28.23 56.65 58.71 56.65S122.7 100.37 122.7 64c0-36.57-28.23-56.65-58.71-56.65z" fill="#EB8F00"/>
    <path d="M124 45.42s-4.26.09-4.26 3.5c0 8.42.09 26.49-21.96 26.49-17.66 0-26.09-9.12-27.51-19.19-.59-4.19-2.04-8.76-6.27-8.76s-5.69 4.57-6.27 8.76c-1.42 10.07-9.85 19.19-27.51 19.19-22.05 0-21.96-18.07-21.96-26.49 0-3.41-4.26-3.5-4.26-3.5v-8.34s8.18-1.26 20.66-1.26 17.45 0 27.38.99c5.86.59 11.96.66 11.96.66s6.1-.06 11.97-.65c9.93-.99 14.9-.99 27.38-.99s20.66 1.26 20.66 1.26v8.33z"/>
    <path d="M21.12 51.95c-.1 1.6-.74 3.08-2.31 3.37a2.897 2.897 0 0 1-3.38-2.31c-.56-2.98.09-5.77 1.82-7.86a8.502 8.502 0 0 1 6.58-3.08c1.6 0 3.01.99 3.01 2.58 0 1.88-1.5 2.67-3.01 3.2-1.41.51-2.59 2.16-2.71 4.1zM84.7 51.95c-.1 1.6-.74 3.08-2.31 3.37a2.897 2.897 0 0 1-3.38-2.31c-.56-2.98.09-5.77 1.82-7.86a8.502 8.502 0 0 1 6.58-3.08c1.6 0 3.01.99 3.01 2.58 0 1.88-1.5 2.67-3.01 3.2-1.4.51-2.59 2.16-2.71 4.1z" fill="#858585"/>
    <path d="M64 93.81c-11.51 0-19.73-5.97-22.2-9.74-.95-1.45-1.14-3.03-.5-4.22.48-.9 1.36-1.41 2.42-1.41.35 0 .72.06 1.09.18 5.8 1.82 12.45 2.78 19.24 2.78 6.74 0 13.37-.96 19.16-2.78.37-.12.74-.18 1.09-.18 1.05 0 1.93.51 2.41 1.41.64 1.19.45 2.76-.5 4.22-2.48 3.76-10.7 9.74-22.21 9.74z" fill="#242424"/>
  </symbol>
  <symbol viewBox="0 0 128 128" id="cry">
    <title>cry</title>
    <path d="M64 119.89C36.07 119.89 6 102.4 6 64S36.07 8.11 64 8.11c15.48 0 29.81 5.12 40.36 14.43C115.9 32.72 122 47.06 122 64c0 16.86-6.1 31.17-17.64 41.39-10.58 9.35-24.91 14.5-40.36 14.5z" fill="url(#cry-a)"/>
    <path d="M64 10.11c14.99 0 28.86 4.95 39.03 13.93C114.13 33.83 120 47.65 120 64c0 16.27-5.87 30.07-16.97 39.89-10.21 9.03-24.07 14-39.03 14-15.04 0-28.9-4.91-39.04-13.82C13.86 94.32 8 80.46 8 64c0-16.54 5.86-30.42 16.96-40.15C35.07 14.99 48.93 10.11 64 10.11m0-4c-31.15 0-60 20-60 57.89 0 37.68 28.85 57.89 60 57.89s60-20.73 60-57.89c0-37.37-28.85-57.89-60-57.89z" fill="#EB8F00"/>
    <path d="M37.64 97.09c2.96 4.36 8.73 5.74 13.36 3.24 3.91-2.1 8.32-3.29 13-3.29s9.09 1.19 13 3.29c4.64 2.5 10.41 1.11 13.36-3.24 2.14-3.15 2.33-7.22.56-10.59C85.44 76.06 75.44 69.07 64 69.07S42.56 76.06 37.08 86.5c-1.77 3.38-1.58 7.44.56 10.59z" clip-path="url(#cry-c)" fill="#242424"/>
    <g clip-path="url(#cry-c)" opacity=".6">
      <path d="M66.37 74.15c0 4.4-.39 5.74 1.64 9.9h-.02c.34.69.55 1.46.55 2.28 0 2.88-2.33 5.21-5.21 5.21s-5.21-2.33-5.21-5.21c0-.82.21-1.59.55-2.28h-.02c2.02-4.16 1.64-5.58 1.64-9.9-8.2 1.44-14.43 8.58-14.43 17.2 0 9.65 7.83 17.48 17.48 17.48S80.81 101 80.81 91.35c0-8.62-6.24-15.76-14.44-17.2z"/>
    </g>
    <g fill="#6D4C41">
      <path d="M48.37 22.74c.05-.01.09-.01.14-.02 2.18-.3 2.4-3.51-.04-3.66-1.91-.09-3.88.12-5.84.63-5.39 1.4-9.84 4.87-12.38 9.04-1.24 2.1 1.55 3.75 3 2.1 3.76-4.13 9.16-7.16 15.12-8.09zM79.63 22.74c-.05-.01-.09-.01-.14-.02-2.18-.3-2.4-3.51.04-3.66 1.91-.09 3.88.12 5.84.63 5.39 1.4 9.84 4.87 12.38 9.04 1.24 2.1-1.55 3.75-3 2.1-3.76-4.13-9.16-7.16-15.12-8.09z"/>
    </g>
    <path d="M35.88 122.34c-9.46 0-15.49-3.31-15.49-5.59 0-.14.04-.31.12-.53.19-.51.17-1.07-.06-1.56s-.65-.86-1.16-1.04c-2.73-.93-3.73-2.09-3.73-2.65 0-1.2 3.73-3.61 10.57-3.76 1.06-.02 1.91-.95 1.95-2.01l2.4-62.2h10.66l2.74 67.49c.03.85.6 1.63 1.42 1.87 4.17 1.26 6.07 3.15 6.07 4.35 0 2.28-6.04 5.63-15.49 5.63z" fill="#5F7AFF"/>
    <path d="M39.22 45l2.66 65.57c.07 1.7 1.21 3.21 2.84 3.71 2.95.89 4.2 1.98 4.57 2.44-.86 1.17-5.48 3.61-13.41 3.61-7.99 0-12.62-2.45-13.43-3.61.3-.96.24-2-.2-2.92-.46-.98-1.3-1.73-2.33-2.08a9.98 9.98 0 0 1-1.73-.76c1.33-.76 4.11-1.67 7.97-1.75 2.11-.05 3.82-1.82 3.91-3.93L32.41 45H39m4.06-4h-14.5l-2.48 64.13c-6.98.16-12.52 2.73-12.52 5.8 0 1.84 1.99 3.51 5.08 4.56-.15.4-.25.82-.25 1.24 0 4.19 7.83 7.59 17.49 7.59s17.49-3.42 17.49-7.61c0-2.58-2.97-4.95-7.49-6.32L43.06 41z" fill="#4864ED"/>
    <path d="M92.42 122.33c-9.46 0-15.49-3.32-15.49-5.6 0-1.2 1.9-3.06 6.07-4.33.81-.25 1.38-1.07 1.42-1.92L87.16 43h10.66l2.4 62.21c.04 1.06.9 1.94 1.95 1.96 6.84.16 10.57 2.6 10.57 3.8 0 .55-.99 1.71-3.73 2.64-.51.17-.93.56-1.16 1.04-.23.49-.25 1.05-.06 1.56.08.22.12.39.12.52 0 2.29-6.04 5.6-15.49 5.6z" fill="#5F7AFF"/>
    <path d="M95.89 45l2.33 60.29c.08 2.11 1.79 3.84 3.91 3.89 3.86.09 6.64 1.03 7.97 1.79-.4.23-.96.51-1.73.77-1.02.35-1.86 1.1-2.33 2.08-.43.91-.5 1.96-.2 2.91-.81 1.16-5.45 3.6-13.43 3.6-7.92 0-12.54-2.42-13.41-3.59.37-.46 1.62-1.53 4.57-2.42 1.63-.49 2.77-2.05 2.84-3.75L89.08 45H96m3.74-4h-14.5l-2.82 69.4c-4.53 1.37-7.49 3.71-7.49 6.28 0 4.19 7.83 7.62 17.49 7.62s17.49-3.38 17.49-7.57c0-.42-.1-.82-.25-1.22 3.09-1.05 5.08-2.68 5.08-4.52 0-3.07-5.55-5.71-12.52-5.86L99.74 41z" fill="#4864ED"/>
    <g fill="#242424">
      <path d="M42.15 49.11s-.06-.08-.18-.22c-.06-.07-.13-.16-.21-.27-.09-.11-.18-.23-.26-.29l-.62-.62c-.25-.25-.55-.52-.86-.79-.64-.54-1.4-1.04-2.2-1.39-.81-.34-1.62-.53-2.45-.52.35-.01.09 0 .17 0H35.25l-.29.01c-.26 0-.21.02-.29.03-.07-.01-.35.06-.54.09-.4.1-.82.22-1.22.39-.8.35-1.56.85-2.2 1.39-.63.54-1.16 1.07-1.51 1.47-.36.41-.57.64-.57.64l-.3.34a3.323 3.323 0 0 1-4.69.28c-1.04-.92-1.36-2.36-.93-3.6 0 0 .04-.11.11-.32.08-.21.17-.53.35-.91.33-.78.89-1.87 1.82-3.08.91-1.21 2.25-2.51 4.03-3.54.9-.49 1.89-.96 2.97-1.25.56-.13 1.04-.26 1.74-.34.3-.04.74-.09.87-.09l.76-.04c1.14.02 2.28.18 3.37.47 1.08.28 2.07.75 2.97 1.25 1.78 1.03 3.12 2.33 4.03 3.54.47.6.84 1.18 1.13 1.7.29.5.53 1.01.72 1.44.11.22.16.38.2.5.04.13.08.24.11.33l.09.27c.57 1.77-.4 3.67-2.17 4.24a3.41 3.41 0 0 1-3.66-1.11zM99.48 49.11s-.06-.08-.18-.22c-.06-.07-.13-.16-.21-.27-.09-.11-.18-.23-.26-.29l-.62-.62c-.25-.25-.55-.52-.86-.79-.64-.54-1.4-1.04-2.2-1.39-.81-.34-1.62-.53-2.45-.52.35-.01.09 0 .17 0H92.58l-.29.01c-.26 0-.21.02-.29.03-.07-.01-.35.06-.54.09-.4.1-.82.22-1.22.39-.8.35-1.56.85-2.2 1.39-.63.54-1.16 1.07-1.52 1.47-.36.41-.57.64-.57.64l-.3.34a3.323 3.323 0 0 1-4.69.28c-1.04-.92-1.36-2.36-.93-3.6 0 0 .04-.11.11-.32.08-.21.17-.53.35-.91.33-.78.89-1.87 1.82-3.08.91-1.21 2.25-2.51 4.03-3.54.9-.49 1.89-.96 2.97-1.25.56-.13 1.04-.26 1.74-.34.3-.04.73-.09.87-.09l.76-.04c1.14.02 2.28.18 3.37.47 1.08.28 2.07.75 2.97 1.25 1.78 1.03 3.12 2.33 4.03 3.54.47.6.84 1.18 1.13 1.7.29.5.53 1.01.72 1.44.11.22.16.38.2.5.04.13.08.24.11.33l.09.27c.57 1.77-.4 3.67-2.17 4.24-1.35.43-2.8-.06-3.65-1.11z"/>
    </g>
  </symbol>
  <symbol viewBox="0 0 128 128" id="crying-emoji">
    <title>crying-emoji</title>
    <path d="M64 119.89C36.07 119.89 6 102.4 6 64S36.07 8.11 64 8.11c15.48 0 29.81 5.12 40.36 14.43C115.9 32.72 122 47.06 122 64c0 16.86-6.1 31.17-17.64 41.39-10.58 9.35-24.91 14.5-40.36 14.5z" fill="url(#crying-emoji-a)"/>
    <path d="M64 10.11c14.99 0 28.86 4.95 39.03 13.93C114.13 33.83 120 47.65 120 64c0 16.27-5.87 30.07-16.97 39.89-10.21 9.03-24.07 14-39.03 14-15.04 0-28.9-4.91-39.04-13.82C13.86 94.32 8 80.46 8 64c0-16.54 5.86-30.42 16.96-40.15C35.07 14.99 48.93 10.11 64 10.11m0-4c-31.15 0-60 20-60 57.89 0 37.68 28.85 57.89 60 57.89s60-20.73 60-57.89c0-37.37-28.85-57.89-60-57.89z" fill="#EB8F00"/>
    <path d="M64 79.44c10.75 0 18.41 5.58 20.72 9.09.89 1.36 1.07 2.83.47 3.94-.45.84-1.27 1.32-2.25 1.32-.33 0-.67-.06-1.01-.16-5.42-1.7-11.62-2.59-17.96-2.59-6.29 0-12.48.9-17.88 2.59-.35.11-.69.16-1.02.16-.98 0-1.8-.48-2.25-1.32-.6-1.11-.42-2.58.47-3.94 2.3-3.52 9.96-9.09 20.71-9.09z" fill="#242424"/>
    <path d="M41.32 106.55c-5.6 0-9.94-5.47-9.94-10.18 0-3.3 1.48-7.12 3.52-12.42.3-.77.61-1.58.93-2.41 1.55-4.07 3.76-8.44 5.37-11.44 1.43 2.96 3.47 7.25 5.39 11.55 3.63 8.15 4.69 11.46 4.69 14.72-.01 4.71-4.36 10.18-9.96 10.18z" fill="#5F7AFF"/>
    <path d="M41.12 75.17c1.07 2.27 2.26 4.83 3.4 7.4 3.48 7.81 4.49 10.91 4.49 13.8 0 4.39-4.2 7.93-7.68 7.93s-7.68-3.54-7.68-7.93c0-2.88 1.41-6.54 3.37-11.61.3-.78.61-1.58.93-2.42.9-2.4 2.05-4.91 3.17-7.17m.2-9.94s-4.81 8.16-7.61 15.5c-2.55 6.7-4.59 11.39-4.59 15.64 0 6.05 5.46 12.44 12.2 12.44s12.2-6.39 12.2-12.44c0-3.81-1.23-7.45-4.88-15.63-3.49-7.83-7.32-15.51-7.32-15.51z" fill="#4864ED"/>
    <g fill="#6D4C41" stroke="#6D4C41" stroke-miterlimit="10">
      <path d="M95.25 46.43c-1.38.21-2.7-.46-3.36-1.71-1.88-3.43-5.32-6.05-9.18-6.99-1.6-.35-2.68-1.73-2.63-3.29.05-1.49 1.08-2.65 2.58-2.88.19-.03.4-.04.62-.04 1.77.07 3.48.44 5.11 1.1 4.39 1.75 7.87 5.4 9.28 9.76.3.98.19 1.92-.28 2.68a3.11 3.11 0 0 1-2.14 1.37zM32.75 46.43c1.38.21 2.7-.46 3.36-1.71 1.88-3.43 5.32-6.05 9.18-6.99 1.6-.35 2.68-1.73 2.63-3.29-.05-1.49-1.08-2.65-2.58-2.88-.19-.03-.4-.04-.62-.04-1.77.07-3.48.44-5.11 1.1-4.39 1.75-7.87 5.4-9.28 9.76-.3.98-.19 1.92.28 2.68a3.11 3.11 0 0 0 2.14 1.37z"/>
    </g>
    <path d="M82.77 46.86c4.19 0 8 3.54 8 9.42s-3.81 9.42-8 9.42-8-3.54-8-9.42 3.81-9.42 8-9.42zM45.23 46.86c-4.19 0-8 3.54-8 9.42s3.81 9.42 8 9.42 8-3.54 8-9.42-3.81-9.42-8-9.42z" fill="#242424"/>
  </symbol>
  <symbol viewBox="0 0 128 128" id="dizzy-emoji">
    <title>dizzy-emoji</title>
    <path d="M64 119.89C36.07 119.89 6 102.4 6 64S36.07 8.11 64 8.11c15.48 0 29.81 5.12 40.36 14.43C115.9 32.72 122 47.06 122 64c0 16.86-6.1 31.17-17.64 41.39-10.58 9.35-24.91 14.5-40.36 14.5z" fill="url(#dizzy-emoji-a)"/>
    <path d="M64 10.11c14.99 0 28.86 4.95 39.03 13.93C114.13 33.83 120 47.65 120 64c0 16.27-5.87 30.07-16.97 39.89-10.21 9.03-24.07 14-39.03 14-15.04 0-28.9-4.91-39.04-13.82C13.86 94.32 8 80.46 8 64c0-16.54 5.86-30.42 16.96-40.15C35.07 14.99 48.93 10.11 64 10.11m0-4c-31.15 0-60 20-60 57.89 0 37.68 28.85 57.89 60 57.89s60-20.73 60-57.89c0-37.37-28.85-57.89-60-57.89z" fill="#EB8F00"/>
    <path d="M102.18 50.48c.02-8.95-7.22-16.22-16.17-16.24-7.16-.02-12.98 5.77-12.99 12.93-.01 5.73 4.62 10.38 10.35 10.39 4.58.01 8.3-3.7 8.32-8.28a6.634 6.634 0 0 0-6.62-6.65 5.3 5.3 0 0 0-5.32 5.3M30.31 33.8c-5.16 7.31-3.41 17.42 3.9 22.58 5.85 4.13 13.94 2.73 18.07-3.12 3.3-4.68 2.18-11.15-2.5-14.45a8.291 8.291 0 0 0-11.56 2c-2.11 3-1.4 7.14 1.6 9.25a5.307 5.307 0 0 0 7.4-1.28" fill="none" stroke="#242424" stroke-linecap="round" stroke-linejoin="round" stroke-miterlimit="10" stroke-width="5"/>
    <path d="M64 64.87c-16.03 0-33.43 16.18-33.43 36.14 0 5.58 5.31 8.83 10.05 6.56 5.86-2.8 14.49-5.62 23.38-5.62s17.52 2.81 23.38 5.62c4.74 2.27 10.05-.98 10.05-6.56 0-19.96-18.61-36.14-33.43-36.14z" clip-path="url(#dizzy-emoji-c)" fill="#242424"/>
    <path d="M64 78.79c11.75 0 22.65 1.84 31.26 5.2V51.34H32.75v32.65c8.6-3.36 19.5-5.2 31.25-5.2z" clip-path="url(#dizzy-emoji-c)" fill="#fff"/>
    <g clip-path="url(#dizzy-emoji-c)">
      <g clip-path="url(#dizzy-emoji-e)">
        <path d="M64 69.4c6.08 0 13.39 3.54 19.06 9.25 6.35 6.38 9.84 14.32 9.84 22.37 0 1.9-1.23 2.76-2.38 2.76-.39 0-.79-.1-1.19-.29-3.81-1.82-13.9-6.06-25.33-6.06s-21.52 4.24-25.33 6.06c-.4.19-.8.29-1.19.29-1.15 0-2.38-.86-2.38-2.76C35.1 83.21 50.63 69.4 64 69.4m0-4.53c-16.03 0-33.43 16.18-33.43 36.14 0 4.36 3.24 7.29 6.91 7.29 1.03 0 2.1-.23 3.14-.73 5.86-2.8 14.49-5.62 23.38-5.62s17.52 2.81 23.38 5.62c1.04.5 2.11.73 3.14.73 3.67 0 6.91-2.93 6.91-7.29 0-19.96-18.61-36.14-33.43-36.14z" fill="#EB8F00"/>
      </g>
    </g>
  </symbol>
  <symbol viewBox="0 0 128 128" id="grossed-emoji">
    <title>grossed-emoji</title>
    <path d="M64 119.89C36.07 119.89 6 102.4 6 64S36.07 8.11 64 8.11c15.48 0 29.81 5.12 40.36 14.43C115.9 32.72 122 47.06 122 64c0 16.86-6.1 31.17-17.64 41.39-10.58 9.35-24.91 14.5-40.36 14.5z" fill="url(#grossed-emoji-a)"/>
    <path d="M64 10.11c14.99 0 28.86 4.95 39.03 13.93C114.13 33.83 120 47.65 120 64c0 16.27-5.87 30.07-16.97 39.89-10.21 9.03-24.07 14-39.03 14-15.04 0-28.9-4.91-39.04-13.82C13.86 94.32 8 80.46 8 64c0-16.54 5.86-30.42 16.96-40.15C35.07 14.99 48.93 10.11 64 10.11m0-4c-31.15 0-60 20-60 57.89 0 37.68 28.85 57.89 60 57.89s60-20.73 60-57.89c0-37.37-28.85-57.89-60-57.89z" fill="#EB8F00"/>
    <path d="M35.47 96.24c-6.6 0-11.98-5.37-11.98-11.98v-.66c0-6.6 5.37-11.98 11.98-11.98h57.06c6.6 0 11.98 5.37 11.98 11.98v.66c0 6.6-5.37 11.98-11.98 11.98H35.47z" fill="#fff"/>
    <path d="M92.53 73.62c5.5 0 9.98 4.48 9.98 9.98v.66c0 5.5-4.48 9.98-9.98 9.98H35.47c-5.5 0-9.98-4.48-9.98-9.98v-.66c0-5.5 4.48-9.98 9.98-9.98h57.06m0-4H35.47c-7.69 0-13.98 6.29-13.98 13.98v.66c0 7.69 6.29 13.98 13.98 13.98h57.06c7.69 0 13.98-6.29 13.98-13.98v-.66c0-7.69-6.29-13.98-13.98-13.98z" fill="#EB8F00"/>
    <path clip-path="url(#grossed-emoji-c)" fill="none" stroke="#B3B3B0" stroke-miterlimit="10" stroke-width="4" d="M16.4 83.93h95.2M37.02 68.66v30.53M50.76 68.66v30.53M64.51 68.66v30.53M78.25 68.66v30.53M92 68.66v30.53"/>
    <path d="M44.67 37.86c-4.19 0-8 3.54-8 9.42s3.81 9.42 8 9.42 8-3.54 8-9.42-3.81-9.42-8-9.42zM83.33 37.86c-4.19 0-8 3.54-8 9.42s3.81 9.42 8 9.42 8-3.54 8-9.42-3.81-9.42-8-9.42z" fill="#242424"/>
  </symbol>
  <symbol viewBox="0 0 128 128" id="heart-emoji">
    <title>heart-emoji</title>
    <path d="M64 119.89C36.07 119.89 6 102.4 6 64S36.07 8.11 64 8.11c15.48 0 29.81 5.12 40.36 14.43C115.9 32.72 122 47.06 122 64c0 16.86-6.1 31.17-17.64 41.39-10.58 9.35-24.91 14.5-40.36 14.5z" fill="url(#heart-emoji-a)"/>
    <path d="M64 10.11c14.99 0 28.86 4.95 39.03 13.93C114.13 33.83 120 47.65 120 64c0 16.27-5.87 30.07-16.97 39.89-10.21 9.03-24.07 14-39.03 14-15.04 0-28.9-4.91-39.04-13.82C13.86 94.32 8 80.46 8 64c0-16.54 5.86-30.42 16.96-40.15C35.07 14.99 48.93 10.11 64 10.11m0-4c-31.15 0-60 20-60 57.89 0 37.68 28.85 57.89 60 57.89s60-20.73 60-57.89c0-37.37-28.85-57.89-60-57.89z" fill="#EB8F00"/>
    <ellipse cx="33.75" cy="71.58" rx="17.5" ry="16.5" fill="url(#heart-emoji-b)" opacity=".8"/>
    <ellipse cx="94.25" cy="71.58" rx="17.5" ry="16.5" fill="url(#heart-emoji-c)" opacity=".8"/>
    <path d="M63.99 82.23c-3.58 0-7.12-.61-10.5-1.79-7.15-2.5-13.36 5.57-9.2 11.89 4.33 6.58 11.07 10.22 19.69 10.22s15.36-3.64 19.69-10.22c4.16-6.33-2.04-14.39-9.2-11.89-3.37 1.18-6.9 1.79-10.48 1.79z" fill="#242424"/>
    <path d="M41.93 69.94c-1.03-.26-7.31-1.9-13.83-5.16-6.06-3.03-13.69-8.18-15.7-15.5-.81-2.9-.42-5.93 1.08-8.56s3.95-4.53 6.9-5.36c.97-.28 1.98-.42 3-.42 2.96 0 5.87 1.17 7.98 3.21l2.47 2.39.86-3.33c1.01-3.91 4.08-7.01 8.03-8.11 1.03-.31 2.06-.46 3.09-.46 4.99 0 9.56 3.48 10.87 8.27 3.8 13.84-13.37 31.63-14.75 33.03z" fill="#CC1775"/>
    <path d="M45.81 30.65c4.1 0 7.87 2.86 8.95 6.8 3.16 11.5-9.9 26.46-13.45 30.25-4.98-1.4-23.83-7.43-26.99-18.97-.66-2.37-.34-4.86.9-7.03s3.27-3.74 5.72-4.43a9.17 9.17 0 0 1 2.45-.34c2.45 0 4.85.96 6.59 2.65l4.94 4.78 1.71-6.66c.84-3.27 3.32-5.76 6.63-6.68l.08-.02c.79-.22 1.63-.35 2.47-.35m0-4c-1.2 0-2.42.17-3.63.53-4.81 1.33-8.28 5.06-9.43 9.54-2.46-2.39-5.87-3.77-9.37-3.77-1.18 0-2.37.16-3.54.49-3.45.97-6.33 3.19-8.1 6.29s-2.23 6.68-1.28 10.09c4.24 15.49 30.01 21.84 31.11 22.11.13.03.27.05.41.05.13 0 .26-.02.39-.04.32-.07.63-.24.88-.47.8-.79 19.61-19.62 15.37-35.06-1.6-5.84-7.03-9.76-12.81-9.76z" fill="#B3005C"/>
    <path d="M86.46 70.05c-.72-.7-5.36-5.29-9.41-11.44-3.74-5.68-7.81-13.98-5.93-21.32 1.25-4.9 5.84-8.46 10.92-8.46.97 0 1.94.13 2.87.39 4 1.03 7.13 4.09 8.21 7.98l.92 3.31 2.43-2.43c2.12-2.13 5.08-3.35 8.12-3.35.95 0 1.9.12 2.81.36 2.97.77 5.45 2.63 7 5.24 1.55 2.6 1.99 5.64 1.24 8.54-1.88 7.37-9.43 12.65-15.43 15.78-6.52 3.4-12.81 5.15-13.75 5.4z" fill="#CC1775"/>
    <path d="M82.05 30.83c.79 0 1.58.11 2.34.32l.08.02c3.32.86 5.84 3.31 6.74 6.56l1.83 6.63 4.86-4.87c1.75-1.76 4.19-2.76 6.7-2.76.78 0 1.55.1 2.31.3 2.45.64 4.51 2.17 5.78 4.32 1.27 2.14 1.64 4.63 1.01 7.03-2.96 11.58-21.71 17.93-26.65 19.42-1.62-1.66-5.15-5.48-8.32-10.29-3.52-5.34-7.36-13.1-5.66-19.73 1.03-4.03 4.8-6.95 8.98-6.95m0-4c-5.86 0-11.34 4.04-12.85 9.96-3.98 15.52 15.15 34.01 15.97 34.79.25.23.56.39.88.46.12.02.24.04.36.04.15 0 .29-.02.44-.06 1.09-.28 26.75-7.08 30.72-22.64.89-3.42.38-6.99-1.45-10.06s-4.74-5.24-8.21-6.15c-1.1-.29-2.21-.43-3.32-.43-3.58 0-7.06 1.46-9.53 3.94-1.23-4.46-4.76-8.12-9.6-9.37-1.14-.33-2.28-.48-3.41-.48z" fill="#B3005C"/>
  </symbol>
  <symbol viewBox="0 0 128 128" id="monkey">
    <title>monkey</title>
    <ellipse cx="27.91" cy="66" rx="22.41" ry="25.14" fill="#E6B175"/>
    <path d="M27.91 42.36c11.53 0 20.91 10.6 20.91 23.64s-9.38 23.64-20.91 23.64S7 79.03 7 66s9.38-23.64 20.91-23.64m0-3C14.71 39.36 4 51.29 4 66s10.71 26.64 23.91 26.64S51.82 80.71 51.82 66s-10.7-26.64-23.91-26.64z" fill="#8B5E3C"/>
    <path d="M100.09 91.14c-12.36 0-22.41-11.28-22.41-25.14s10.05-25.14 22.41-25.14S122.5 52.14 122.5 66s-10.05 25.14-22.41 25.14z" fill="#E6B175"/>
    <path d="M100.09 42.36C111.62 42.36 121 52.97 121 66s-9.38 23.64-20.91 23.64S79.18 79.03 79.18 66s9.38-23.64 20.91-23.64m0-3c-13.21 0-23.91 11.93-23.91 26.64s10.71 26.64 23.91 26.64S124 80.71 124 66s-10.71-26.64-23.91-26.64z" fill="#8B5E3C"/>
    <path d="M64.07 113.87c-14.34 0-26.67-5.46-35.64-15.79-8.29-9.54-12.86-22.31-12.86-35.94 0-24.03 15-48.28 48.5-48.28s48.5 24.25 48.5 48.28c0 13.63-4.57 26.39-12.86 35.94-8.97 10.33-21.3 15.79-35.64 15.79z" fill="url(#monkey-a)"/>
    <path d="M64.07 15.36c14.34 0 26.38 4.72 34.8 13.64 7.87 8.33 12.2 20.1 12.2 33.14 0 13.27-4.44 25.68-12.49 34.95-8.68 9.99-20.61 15.27-34.51 15.27s-25.83-5.28-34.51-15.27c-8.06-9.27-12.49-21.68-12.49-34.95 0-13.04 4.33-24.81 12.2-33.14 8.42-8.92 20.46-13.64 34.8-13.64m0-3c-31.96 0-50 22.29-50 49.78s18.6 53.22 50 53.22 50-25.73 50-53.22-18.04-49.78-50-49.78z" fill="#8B5E3C"/>
    <path d="M105.19 56.21c0-10.94-9.23-19.81-20.61-19.81-10.14 0-18.55 7.04-20.27 16.31-.1 0-.21-.01-.31-.01h-.17c-1.73-9.27-10.14-16.3-20.27-16.3-11.38 0-20.61 8.87-20.61 19.81 0 5.88 2.68 11.14 6.91 14.77-1.15 2.59-1.78 5.36-1.78 8.24 0 14.65 16.08 30.28 35.92 30.28s35.92-15.63 35.92-30.28c0-2.84-.61-5.58-1.73-8.15 4.28-3.63 7-8.94 7-14.86z" fill="url(#monkey-b)"/>
    <g fill="#404040">
      <ellipse cx="41.4" cy="59.01" rx="7.87" ry="8.91"/>
      <ellipse cx="86.6" cy="59.01" rx="7.87" ry="8.91"/>
    </g>
    <path d="M63.99 81.32c-9.23 0-17.8-.77-24.96-2.1-1.77-.33-3.34 1.23-2.98 3 2.38 11.64 13.83 21.19 27.93 21.19 15.43 0 25.81-9.87 27.97-21.23.33-1.76-1.23-3.29-2.99-2.96-7.15 1.32-15.73 2.1-24.97 2.1z" clip-path="url(#monkey-d)" fill="#404040" stroke="#404040" stroke-miterlimit="10"/>
    <path d="M95 78.97V70H33v8.97c9 5.65 19.91 8.8 31 8.8s22-3.15 31-8.8z" clip-path="url(#monkey-d)" fill="#fff"/>
    <g clip-path="url(#monkey-d)">
      <path d="M63.99 81.32c-9.23 0-17.8-.77-24.96-2.1-1.77-.33-3.34 1.23-2.98 3 2.38 11.64 13.83 21.19 27.93 21.19 15.43 0 25.81-9.87 27.97-21.23.33-1.76-1.23-3.29-2.99-2.96-7.15 1.32-15.73 2.1-24.97 2.1z" fill="none"/>
    </g>
    <path d="M33 72v8.64c9 5.65 19.91 8.8 31 8.8s22-3.14 31-8.8V72H33z" clip-path="url(#monkey-d)" fill="none"/>
    <path d="M64 95.35c-6.92 0-12.95 3.77-16.17 9.37 4.18 2.28 9.88 3.69 16.17 3.69s11.99-1.41 16.17-3.69c-3.22-5.6-9.25-9.37-16.17-9.37z" clip-path="url(#monkey-d)" fill="#FF4F4F"/>
    <g fill="#404040">
      <ellipse cx="58.75" cy="70.12" rx="2.44" ry="3.91"/>
      <ellipse cx="69.25" cy="70.12" rx="2.44" ry="3.91"/>
    </g>
  </symbol>
  <symbol viewBox="0 0 128 128" id="poo">
    <title>poo</title>
    <path d="M63.93 122.33c-33.25 0-42.68-2.73-49.56-4.73-.75-.22-1.47-.43-2.2-.63-6.32-1.74-6.79-9.97-5.59-14.75 1.31-5.24 5.78-9.35 11.95-11 1.13-.3 2.02-1.09 2.46-2.17s.34-2.27-.26-3.28c-1.63-2.72-2.08-5.93-1.25-8.82.83-2.9 3-5.59 5.93-7.37 1.16-.7 2.28-1.04 3.83-1.37.07-.01.16-.03.28-.05 1.16-.19 2.91-.48 3.61-1.9.35-.71.34-1.54-.05-2.28-1.73-3.29-1.85-7.09-.35-10.69 1.65-3.97 5.04-7.07 9.06-8.3.12-.04.51-.09.77-.12 1.16-.15 2.6-.34 3.23-1.62.35-.7.31-1.51-.1-2.22-4.24-7.4.07-10.67 3.87-13.55 1.79-1.36 3.2-2.43 3.47-4.02.57-3.33.2-5.82-1.32-8.63 6.1 1.84 10.72 3.55 15.66 6.5 10 5.97 14.17 11.34 12.76 16.42-.04.13-.08.26-.12.4-.18.58-.4 1.3-.39 2.12.01 3.22 4.06 4.5 7.02 5.43.74.23 1.5.47 1.8.63 2.5 1.27 4.59 3.3 5.9 5.73 1.2 2.23 1.76 4.87 1.59 7.44-.02.24-.26.96-.42 1.44-.59 1.74-1.25 3.71-.43 5.37.4.8 1.08 1.38 1.97 1.67 5.86 1.94 9.05 4.54 10.38 8.44.83 2.46.77 5.25-.17 7.67-.07.18-.17.39-.27.62-.58 1.28-1.46 3.22-.6 4.92.33.65 1.04 1.49 2.54 1.79 6.39 1.3 10.96 5.23 12.53 10.78.07.24.13.5.18.79.82 4.37.18 11.65-4.92 13.84-6.22 2.67-26.84 5.5-52.79 5.5z" fill="url(#poo-a)"/>
    <path d="M55.01 17.99c4.16 1.39 7.67 2.88 11.33 5.06 8.99 5.37 12.98 10.14 11.86 14.17-.03.12-.07.23-.1.35-.2.67-.48 1.58-.48 2.71.01 4.68 5.07 6.27 8.42 7.33.54.17 1.29.41 1.5.5 2.14 1.09 3.93 2.82 5.04 4.89 1.01 1.87 1.49 4.09 1.37 6.26-.05.22-.22.71-.33 1.04-.64 1.9-1.52 4.5-.32 6.91.63 1.27 1.74 2.22 3.13 2.68 5.2 1.72 8.01 3.94 9.11 7.19.68 2.02.63 4.32-.14 6.3-.06.15-.14.33-.23.52-.7 1.53-1.86 4.1-.56 6.65.75 1.47 2.14 2.48 3.92 2.84 3.31.67 9.14 2.79 11 9.37.05.17.1.38.14.62.67 3.59.25 9.92-3.74 11.63-4.82 2.06-23.2 5.34-52.01 5.34-32.96 0-42.23-2.69-49.01-4.65-.76-.22-1.49-.43-2.22-.63-5.14-1.41-5.03-8.92-4.18-12.33 1.13-4.52 5.07-8.09 10.53-9.55 1.74-.46 3.12-1.68 3.8-3.35s.53-3.51-.4-5.06c-1.34-2.24-1.72-4.88-1.05-7.23.7-2.42 2.54-4.69 5.05-6.22.92-.56 1.84-.83 3.19-1.12.06-.01.13-.02.21-.04 1.37-.23 3.92-.65 5.08-2.98.64-1.29.62-2.79-.07-4.09-1.45-2.76-1.54-5.95-.27-8.99 1.42-3.4 4.31-6.06 7.73-7.14.11-.02.35-.05.51-.07 1.37-.18 3.66-.48 4.76-2.72.64-1.29.58-2.82-.15-4.11-3.2-5.59-.82-7.81 3.34-10.96 1.97-1.49 3.83-2.9 4.23-5.28.37-2.17.38-4.04.01-5.84m-4-5.36c-1.23 0-2.11 1.38-1.41 2.54 1.58 2.66 2 4.8 1.46 7.96-.5 2.94-14.16 6.57-7.1 18.9.49.86-1.81.77-2.75 1.06-8.94 2.74-14.42 13.22-9.9 21.84.52.99-1.88 1.2-2.5 1.34-1.66.36-3.01.75-4.44 1.62-3.34 2.03-5.83 5.1-6.81 8.53-1 3.46-.44 7.23 1.46 10.4.58.96.08 2.2-1 2.49-6.25 1.67-11.76 5.98-13.38 12.45-1.41 5.65-.62 15.07 7 17.16 7.62 2.1 15.29 5.43 52.29 5.43 27.17 0 47.34-2.98 53.58-5.66 6.25-2.67 7.03-11.04 6.1-16.04-.07-.36-.14-.68-.22-.97-1.9-6.72-7.39-10.84-14.05-12.2-2.49-.51-.73-3.27-.2-4.65a13.34 13.34 0 0 0 .19-9.03c-1.82-5.37-6.55-8.01-11.64-9.7-2.3-.76.14-4.8.25-6.46.19-2.94-.43-5.93-1.83-8.52-1.51-2.81-3.91-5.12-6.75-6.56-1.69-.86-7.72-1.87-7.73-4.28 0-.68.26-1.32.44-1.98 2.31-8.32-7.7-15.11-13.67-18.67-5.48-3.28-10.54-5.03-16.88-6.91-.18-.07-.35-.09-.51-.09z" fill="#703D2B"/>
    <circle cx="80.13" cy="69.49" r="12.4" fill="#fff"/>
    <circle cx="80.13" cy="69.49" r="12.4" fill="none"/>
    <ellipse cx="80.13" cy="69.49" rx="5.73" ry="5.82" fill="#242424"/>
    <circle cx="47.87" cy="69.49" r="12.4" fill="#fff"/>
    <circle cx="47.87" cy="69.49" r="12.4" fill="none"/>
    <ellipse cx="47.87" cy="69.49" rx="5.73" ry="5.82" fill="#242424"/>
    <path d="M63.99 89.95c-9.52 0-18.36-.8-25.74-2.16-1.83-.34-3.45 1.27-3.08 3.09 2.45 12 14.27 21.86 28.81 21.86 15.91 0 26.63-10.18 28.85-21.9.34-1.81-1.27-3.39-3.08-3.05-7.38 1.36-16.23 2.16-25.76 2.16z" clip-path="url(#poo-c)"/>
    <path d="M96.26 89.25v-9.02H31.74v9.02c9.92 5.83 20.82 9.07 32.26 9.07s22.34-3.24 32.26-9.07z" clip-path="url(#poo-c)" fill="#fff"/>
  </symbol>
  <symbol viewBox="0 0 128 128" id="smiley-emoji">
    <title>smiley-emoji</title>
    <path d="M64 119.89C36.07 119.89 6 102.4 6 64S36.07 8.11 64 8.11c15.48 0 29.81 5.12 40.36 14.43C115.9 32.72 122 47.06 122 64c0 16.86-6.1 31.17-17.64 41.39-10.58 9.35-24.91 14.5-40.36 14.5z" fill="url(#smiley-emoji-a)"/>
    <path d="M64 10.11c14.99 0 28.86 4.95 39.03 13.93C114.13 33.83 120 47.65 120 64c0 16.27-5.87 30.07-16.97 39.89-10.21 9.03-24.07 14-39.03 14-15.04 0-28.9-4.91-39.04-13.82C13.86 94.32 8 80.46 8 64c0-16.54 5.86-30.42 16.96-40.15C35.07 14.99 48.93 10.11 64 10.11m0-4c-31.15 0-60 20-60 57.89 0 37.68 28.85 57.89 60 57.89s60-20.73 60-57.89c0-37.37-28.85-57.89-60-57.89z" fill="#EB8F00"/>
    <path d="M63.47 62.53c-15.71 0-30.31-1.32-42.49-3.57-3.02-.56-5.69 2.1-5.08 5.11 4.04 19.81 23.55 36.08 47.55 36.08 26.27 0 43.94-16.8 47.61-36.15.57-2.99-2.1-5.6-5.09-5.04-12.18 2.25-26.78 3.57-42.5 3.57z" clip-path="url(#smiley-emoji-c)" fill="#242424"/>
    <path d="M116.72 61.38V46.49H10.24v14.89C26.61 71 44.6 76.35 63.48 76.35s36.86-5.35 53.24-14.97z" clip-path="url(#smiley-emoji-c)" fill="#fff"/>
    <path d="M63.48 86.42c-11.78 0-22.05 6.42-27.53 15.95 7.12 3.89 16.83 6.29 27.53 6.29s20.41-2.4 27.53-6.29c-5.48-9.53-15.75-15.95-27.53-15.95z" clip-path="url(#smiley-emoji-c)" fill="#ED7770"/>
    <g clip-path="url(#smiley-emoji-c)">
      <g clip-path="url(#smiley-emoji-e)">
        <path d="M106.79 63.09c.07 0 .14.07.14.12-1.68 8.85-6.6 16.96-13.85 22.84-7.97 6.46-18.21 9.88-29.63 9.88-10.46 0-20.64-3.45-28.67-9.72-7.72-6.03-12.96-14.19-14.76-23.02.01-.02.07-.1.18-.1h.01c12.86 2.38 27.82 3.64 43.26 3.64s30.41-1.26 43.28-3.65c.01.01.03.01.04.01m0-4.21c-.27 0-.54.02-.81.08-12.18 2.26-26.79 3.58-42.51 3.58-15.71 0-30.31-1.32-42.49-3.57-.27-.05-.54-.08-.81-.08-2.67 0-4.83 2.44-4.27 5.18 4.04 19.81 23.55 36.08 47.55 36.08 26.27 0 43.94-16.8 47.61-36.15.52-2.72-1.63-5.12-4.27-5.12z" fill="#EB8F00"/>
      </g>
    </g>
    <path d="M83.65 23.62c3.8 0 7.26 5.64 7.26 15s-3.46 15-7.26 15-7.26-5.64-7.26-15 3.46-15 7.26-15zM44.27 23.62c-4.06 0-7.74 5.64-7.74 15s3.69 15 7.74 15c4.06 0 7.74-5.64 7.74-15s-3.68-15-7.74-15z" fill="#242424"/>
  </symbol>
  <symbol viewBox="0 0 128 128" id="surprised-emoji">
    <title>surprised-emoji</title>
    <path d="M63.99 119.89c-27.93 0-58-17.49-58-55.89s30.07-55.89 58-55.89c15.48 0 29.81 5.12 40.36 14.43 11.54 10.19 17.64 24.52 17.64 41.46 0 16.86-6.1 31.17-17.64 41.39-10.57 9.35-24.91 14.5-40.36 14.5z" fill="url(#surprised-emoji-a)"/>
    <path d="M63.99 10.11c14.99 0 28.86 4.95 39.03 13.93 11.1 9.8 16.97 23.61 16.97 39.96 0 16.27-5.87 30.07-16.97 39.89-10.21 9.03-24.07 14-39.03 14-15.04 0-28.9-4.91-39.04-13.82C13.86 94.32 7.99 80.46 7.99 64c0-16.54 5.86-30.42 16.96-40.15 10.11-8.86 23.97-13.74 39.04-13.74m0-4c-31.15 0-60 20.01-60 57.89 0 37.68 28.85 57.89 60 57.89s60-20.73 60-57.89c0-37.37-28.85-57.89-60-57.89z" fill="#EB8F00"/>
    <path d="M86.94 23.69c-.04-.02-.09-.03-.13-.05-2.09-.68-1.74-3.88.69-3.6 1.89.25 3.8.8 5.64 1.66 5.05 2.33 8.82 6.54 10.58 11.1.85 2.29-2.19 3.42-3.33 1.54-2.97-4.74-7.75-8.68-13.45-10.65zM40.74 23.69c.04-.02.09-.03.13-.05 2.09-.68 1.74-3.88-.69-3.6-1.89.25-3.8.8-5.64 1.66-5.05 2.33-8.82 6.54-10.58 11.1-.85 2.29 2.19 3.42 3.33 1.54 2.97-4.74 7.75-8.68 13.45-10.65z" fill="#EB8F00" stroke="#EB8F00" stroke-miterlimit="10"/>
    <path d="M77.82 96.94c0 5.6-6.19 8.89-13.82 8.89s-13.82-3.29-13.82-8.89S56.37 85.25 64 85.25s13.82 6.09 13.82 11.69z" fill="#242424"/>
    <circle cx="89.35" cy="57.68" r="19.38" fill="#fff"/>
    <path d="M89.35 40.3c9.58 0 17.38 7.8 17.38 17.38s-7.8 17.38-17.38 17.38-17.38-7.8-17.38-17.38S79.76 40.3 89.35 40.3m0-4c-11.81 0-21.38 9.57-21.38 21.38s9.57 21.38 21.38 21.38 21.38-9.57 21.38-21.38-9.57-21.38-21.38-21.38z" fill="#EB8F00"/>
    <path d="M89.35 48.26c4.19 0 8 3.54 8 9.42s-3.81 9.42-8 9.42-8-3.54-8-9.42 3.81-9.42 8-9.42z" fill="#242424"/>
    <path d="M38.65 77c-10.69 0-19.38-8.69-19.38-19.38s8.69-19.38 19.38-19.38 19.38 8.69 19.38 19.38S49.34 77 38.65 77z" fill="#fff"/>
    <path d="M38.65 40.24c9.58 0 17.38 7.8 17.38 17.38S48.24 75 38.65 75s-17.38-7.8-17.38-17.38 7.8-17.38 17.38-17.38m0-4c-11.81 0-21.38 9.57-21.38 21.38S26.84 79 38.65 79s21.38-9.57 21.38-21.38-9.57-21.38-21.38-21.38z" fill="#EB8F00"/>
    <path d="M38.65 48.21c-4.19 0-8 3.54-8 9.42s3.81 9.42 8 9.42 8-3.54 8-9.42-3.81-9.42-8-9.42z" fill="#242424"/>
  </symbol>
  <symbol viewBox="0 0 128 128" id="tongue-emoji">
    <title>tongue-emoji</title>
    <path d="M64 119.28c-27.94 0-58-17.49-58-55.9 0-38.4 30.07-55.9 58-55.9 15.48 0 29.81 5.13 40.36 14.43C115.9 32.1 122 46.44 122 63.38c0 16.86-6.1 31.18-17.64 41.39-10.57 9.35-24.91 14.51-40.36 14.51z" fill="url(#tongue-emoji-a)"/>
    <path d="M64 9.48c14.99 0 28.86 4.95 39.04 13.93 11.1 9.8 16.97 23.62 16.97 39.96 0 16.27-5.87 30.07-16.97 39.89-10.21 9.03-24.07 14-39.03 14.01-15.04 0-28.9-4.91-39.04-13.82C13.86 93.7 8 79.84 8 63.38c0-16.54 5.86-30.42 16.96-40.15C35.07 14.37 48.93 9.48 64 9.48m0-4c-31.15 0-60 20.01-60 57.9 0 37.68 28.85 57.9 60 57.9s60-20.73 60-57.9c0-37.37-28.85-57.9-60-57.9z" fill="#EB8F00"/>
    <path d="M62.67 80.43c-12.72 0-24.54-1.07-34.4-2.89-2.45-.45-4.61 1.7-4.11 4.13 3.28 16.04 19.07 29.21 38.5 29.21 21.27 0 35.58-13.6 38.55-29.27.46-2.42-1.7-4.53-4.12-4.08-9.87 1.83-21.7 2.9-34.42 2.9z" clip-path="url(#tongue-emoji-c)" fill="#242424"/>
    <g clip-path="url(#tongue-emoji-c)" opacity=".6">
      <path d="M96.85 81.86c-1.5 6.58-5.27 12.58-10.72 17-6.31 5.12-14.43 7.82-23.49 7.82-16.2 0-30.67-10.59-34.14-24.81 10.23 1.82 22.02 2.78 34.16 2.78 12.16-.01 23.95-.97 34.19-2.79m.89-4.39c-.22 0-.43.02-.66.06-9.86 1.83-21.69 2.9-34.42 2.9-12.72 0-24.54-1.07-34.4-2.89-.22-.04-.44-.06-.66-.06-2.16 0-3.91 1.98-3.46 4.2 3.28 16.04 19.07 29.21 38.5 29.21 21.27 0 35.58-13.6 38.55-29.27.43-2.2-1.31-4.15-3.45-4.15z"/>
    </g>
    <path d="M62.67 80.43c-12.72 0-24.54-1.07-34.4-2.89-2.45-.45-4.61 1.7-4.11 4.13 3.28 16.04 19.07 29.21 38.5 29.21 21.27 0 35.58-13.6 38.55-29.27.46-2.42-1.7-4.53-4.12-4.08-9.87 1.83-21.7 2.9-34.42 2.9z" fill="none"/>
    <path d="M62.67 80.43c-12.72 0-24.54-1.07-34.4-2.89-2.45-.45-4.61 1.7-4.11 4.13 3.28 16.04 19.07 29.21 38.5 29.21 21.27 0 35.58-13.6 38.55-29.27.46-2.42-1.7-4.53-4.12-4.08-9.87 1.83-21.7 2.9-34.42 2.9z" fill="none"/>
    <path d="M65.03 126.15h-3.28c-9.51 0-17.21-7.71-17.21-17.21V70.18h37.71v38.76c-.01 9.51-7.71 17.21-17.22 17.21z" clip-path="url(#tongue-emoji-e)" fill="#E04C74"/>
    <g clip-path="url(#tongue-emoji-e)" opacity=".3">
      <path d="M78.24 74.18v34.76c0 7.29-5.93 13.21-13.21 13.21h-3.28c-7.29 0-13.21-5.93-13.21-13.21V74.18h29.7m4-4h-37.7v38.76c0 9.51 7.71 17.21 17.21 17.21h3.28c9.51 0 17.21-7.71 17.21-17.21V70.18z" fill="#AB3F2E"/>
    </g>
    <path clip-path="url(#tongue-emoji-e)" fill="none" opacity=".3" stroke="#AB3F2E" stroke-linecap="round" stroke-miterlimit="10" stroke-width="4" d="M63.39 70.18v34.14"/>
    <path d="M31.53 60.38l12.17-2.36-12.55-5.21c-.14-.07-.28-.15-.42-.23-2.61-1.6-3.06-4.89-.72-6.93 1.81-1.58 4.76-1.6 6.88-.3 4.98 3.05 16.7 10.24 21.27 13.04.82.5.7 1.58-.22 1.93l-22.91 8.6c-.15.06-.32.11-.48.16-3.03.84-6.32-.89-6.79-3.78-.36-2.2 1.34-4.25 3.77-4.92zM96.47 60.13L84.3 57.78l12.55-5.21c.14-.07.28-.15.42-.23 2.61-1.6 3.06-4.89.72-6.93-1.81-1.58-4.76-1.6-6.88-.3-4.98 3.05-16.7 10.24-21.27 13.04-.82.5-.7 1.58.22 1.93l22.91 8.6c.15.06.32.11.48.16 3.03.84 6.32-.89 6.79-3.78.36-2.21-1.34-4.26-3.77-4.93z" fill="#242424"/>
  </symbol>
</svg>